<?xml version="1.0" standalone="no"?>
<!DOCTYPE svg PUBLIC "-//W3C//DTD SVG 20010904//EN"
 "http://www.w3.org/TR/2001/REC-SVG-20010904/DTD/svg10.dtd">
<svg version="1.0" xmlns="http://www.w3.org/2000/svg"
 width="1024.000000pt" height="1024.000000pt" viewBox="0 0 1024.000000 1024.000000"
 preserveAspectRatio="xMidYMid meet">
<metadata>
Created by potrace 1.16, written by Peter Selinger 2001-2019
</metadata>
<g transform="translate(0.000000,1024.000000) scale(0.100000,-0.100000)"
fill="#000000" stroke="none">
<path d="M0 9920 l0 -320 80 0 c64 0 80 3 80 15 0 11 12 15 44 15 l43 0 12
-92 c15 -113 20 -400 25 -1321 2 -389 6 -711 10 -714 3 -3 8 -4 11 -2 2 3 5
414 6 915 0 847 8 1145 29 1198 7 16 9 8 10 -34 2 -60 17 -126 19 -82 1 20 6
22 56 22 30 0 55 -4 55 -10 0 -5 18 -10 40 -10 29 0 48 -7 73 -30 19 -16 42
-30 50 -30 17 0 77 -56 77 -71 0 -5 12 -9 26 -9 31 0 54 -21 54 -50 0 -11 17
-38 39 -60 37 -37 47 -65 55 -142 3 -36 16 -49 16 -16 0 14 7 32 16 39 15 12
16 11 10 -7 -9 -28 3 -61 15 -42 6 8 9 0 9 -23 0 -20 7 -42 15 -49 8 -7 20
-30 27 -51 6 -22 17 -44 25 -50 7 -6 13 -25 13 -41 0 -16 6 -39 14 -51 8 -12
21 -61 30 -109 8 -48 22 -100 29 -115 19 -37 44 -212 57 -408 6 -88 15 -173
20 -190 12 -40 28 -294 36 -582 5 -179 4 -236 -6 -248 -7 -8 -10 -24 -7 -34
10 -41 7 -40 -298 84 -338 138 -380 154 -397 155 -17 0 -18 -58 -18 -1085 l0
-1085 33 0 c17 0 120 7 227 15 107 8 238 18 290 21 l96 7 14 -29 14 -29 4 25
c2 14 9 28 16 32 33 22 35 11 34 -254 0 -145 -3 -282 -5 -305 -6 -50 -5 -50
-193 -82 -63 -10 -127 -24 -142 -30 l-28 -11 0 -104 0 -105 -43 -11 c-23 -6
-69 -20 -102 -30 -88 -28 -355 -102 -547 -151 -116 -30 -168 -48 -168 -58 0
-10 8 -12 31 -7 17 3 48 6 68 6 24 0 31 3 22 9 -19 12 -5 18 67 26 63 7 82 -3
43 -24 -25 -14 -35 -51 -13 -51 10 0 24 5 32 11 13 9 12 10 -3 5 -11 -3 -16
-2 -12 4 3 6 15 10 25 10 10 0 22 5 25 10 11 18 26 11 17 -8 -5 -9 -12 -120
-15 -247 -3 -126 -10 -243 -16 -260 -5 -16 -10 -27 -10 -22 -1 4 -19 -4 -42
-18 -63 -41 -73 -33 -80 60 l-5 80 -4 -85 c-1 -47 -5 -75 -7 -63 -4 19 -8 21
-24 13 -32 -18 -39 25 -40 243 0 121 -4 194 -9 181 -7 -18 -28 -515 -22 -537
5 -17 -9 -5 -18 16 -5 13 -9 -170 -9 -480 l-1 -502 32 10 c18 5 43 9 55 9 21
0 23 -5 23 -50 0 -38 4 -50 15 -50 11 0 15 11 15 38 1 50 20 75 53 67 l26 -7
-25 -44 c-14 -24 -22 -44 -18 -44 15 0 64 62 58 73 -5 8 -4 9 4 2 6 -6 12 -65
14 -137 1 -69 6 -129 9 -132 3 -4 17 -3 30 2 13 4 303 6 644 3 l619 -6 -90
-80 c-160 -142 -475 -408 -609 -515 -71 -57 -143 -117 -160 -132 l-30 -28
-332 0 -333 0 0 -725 0 -725 1909 0 1909 0 13 32 c11 27 14 29 20 12 4 -10 8
-14 8 -7 2 22 -11 43 -28 44 -12 0 -12 2 4 10 33 16 48 61 36 106 -14 48 -14
56 1 47 8 -5 9 0 5 17 -4 13 -7 34 -7 46 0 13 -8 24 -20 28 -26 8 -26 25 -1
25 28 0 35 17 11 25 -39 12 -21 27 30 23 35 -2 51 1 55 10 6 17 -2 32 -18 31
-9 0 -9 -2 1 -6 19 -8 14 -23 -8 -23 -22 0 -25 28 -5 42 6 4 -3 8 -20 9 -29 1
-29 1 -5 8 24 7 24 7 5 18 -19 11 -19 12 8 22 32 12 35 31 8 55 -12 11 -17 25
-13 38 3 11 -1 24 -9 30 -10 7 -6 8 14 5 22 -3 27 -1 27 17 0 11 -4 17 -8 11
-10 -14 -39 -17 -47 -5 -3 5 2 10 13 10 15 0 19 8 20 35 1 19 -3 35 -8 35 -6
0 -10 -8 -10 -17 0 -15 -2 -14 -15 3 -8 10 -15 22 -15 27 0 11 45 8 57 -4 9
-9 11 -7 6 9 -3 12 -10 19 -19 15 -8 -3 -14 0 -14 7 0 7 -9 9 -22 5 -19 -5
-18 -3 5 10 15 9 27 22 27 30 0 18 16 20 23 3 3 -8 6 -6 6 4 1 9 9 22 19 27
13 8 3 11 -43 12 -36 1 -47 4 -27 6 33 4 45 23 15 23 -15 0 -16 2 -3 9 8 6 17
8 21 5 4 -2 12 3 19 11 7 8 22 15 33 15 30 0 15 10 -22 15 -25 3 -31 0 -27
-10 2 -7 -1 -16 -9 -18 -18 -8 -23 0 -17 29 3 16 9 23 18 20 8 -3 14 0 14 6 0
7 5 6 15 -2 13 -11 14 -10 9 4 -4 11 -13 14 -33 9 -14 -3 -28 -9 -31 -14 -7
-9 -60 -6 -53 4 2 4 13 7 24 7 10 0 19 5 19 10 0 6 8 10 17 8 10 -2 18 3 19
10 1 6 2 19 3 27 0 8 7 12 16 9 9 -4 15 0 15 9 0 8 9 17 20 20 11 3 20 10 20
16 0 15 -47 14 -53 -1 -3 -8 -6 -6 -6 5 -1 22 -21 23 -21 0 0 -13 -3 -14 -12
-5 -7 7 -26 12 -43 12 -33 0 -85 20 -85 33 0 4 7 7 15 7 8 0 15 5 15 10 0 6
19 11 43 11 23 1 34 3 25 6 -10 2 -18 8 -18 13 0 5 -15 4 -32 -1 -42 -12 -51
-11 -43 1 7 11 -15 13 -39 4 -10 -4 -16 -18 -16 -40 0 -19 -4 -34 -10 -34 -5
0 -10 16 -10 35 0 39 -6 43 -26 18 -13 -17 -13 -17 -14 2 0 13 -10 25 -29 32
-23 8 -28 8 -25 -2 5 -13 -27 -25 -61 -24 -13 1 -10 4 10 9 l30 8 -31 1 c-24
1 -33 -4 -37 -19 -7 -26 -24 -26 -32 0 -9 29 -30 37 -117 45 -43 4 -78 11 -78
16 0 5 -19 12 -42 16 -34 5 -38 8 -23 14 17 7 18 8 3 8 -10 1 -18 7 -18 14 0
9 -2 9 -9 -1 -6 -10 -10 -9 -14 7 -4 15 -10 19 -22 15 -14 -6 -16 -2 -11 32 4
21 11 56 17 76 10 39 6 69 -16 129 -8 20 -11 40 -7 43 3 4 2 10 -4 14 -9 5
-66 163 -79 217 -1 6 -10 28 -20 50 -10 22 -19 54 -19 72 -1 17 -4 29 -7 27
-11 -6 -19 24 -12 43 5 12 3 14 -7 8 -10 -6 -12 -4 -7 8 4 10 2 17 -4 17 -6 0
-9 6 -6 14 3 7 2 17 -3 22 -10 10 -90 233 -90 251 0 6 18 24 39 40 90 66 141
161 155 292 3 29 14 66 23 82 l17 29 201 0 c110 1 251 1 312 1 69 0 115 4 119
11 4 6 12 1 20 -13 7 -13 13 -19 14 -13 0 14 48 15 56 2 3 -5 12 -4 20 2 9 8
60 11 151 11 149 -2 169 -3 179 -14 10 -9 24 -9 23 1 -1 4 -1 16 0 27 1 17 3
17 11 5 12 -20 327 -25 903 -15 78 1 117 -2 117 -9 0 -7 3 -7 8 -1 8 11 143
14 135 3 -2 -5 1 -8 6 -8 6 0 11 3 11 8 0 4 56 7 125 7 101 0 128 -3 135 -15
7 -11 10 -11 10 -2 0 7 5 10 10 7 6 -3 10 2 11 12 0 10 3 13 6 6 2 -7 9 -13
14 -13 6 0 7 5 4 11 -5 7 -2 7 11 0 43 -22 69 -26 69 -8 1 6 7 10 15 7 8 -3
233 -6 499 -8 288 -1 490 -6 501 -12 12 -6 20 -6 22 0 2 6 98 10 238 10 l235
1 23 -33 c12 -18 20 -39 17 -46 -8 -21 23 -149 49 -200 26 -52 63 -95 111
-129 l30 -21 -50 -145 c-27 -80 -54 -143 -59 -140 -5 4 -6 1 -2 -5 10 -17 -13
-94 -26 -86 -7 5 -8 2 -3 -5 10 -17 -65 -242 -78 -234 -6 3 -7 1 -3 -5 10 -16
-35 -173 -47 -165 -6 3 -7 1 -3 -5 3 -6 2 -30 -4 -54 -10 -37 -7 -58 14 -142
37 -141 33 -191 -22 -242 -12 -12 -22 -26 -22 -31 0 -17 -27 -36 -32 -23 -2 8
-14 7 -38 -3 -19 -9 -44 -19 -55 -22 l-20 -7 20 -8 c12 -5 -4 -7 -40 -4 -33 2
-52 1 -42 -2 9 -3 17 -9 17 -14 0 -10 -88 -30 -130 -30 -24 0 -30 -4 -30 -21
0 -19 -4 -21 -40 -16 -30 4 -40 2 -40 -9 0 -11 -19 -14 -82 -15 -46 -1 -72 -4
-58 -6 14 -3 30 -9 35 -15 7 -6 -15 -7 -63 -2 -51 5 -72 3 -72 -5 0 -7 29 -12
83 -13 53 -1 65 -3 35 -5 -27 -2 -48 -8 -48 -14 0 -5 -11 -19 -25 -31 -14 -12
-25 -25 -25 -30 0 -13 48 -9 53 5 3 7 6 5 6 -5 1 -12 12 -18 39 -21 24 -3 21
-4 -10 -2 -35 1 -48 -2 -48 -11 0 -8 9 -14 20 -14 11 0 20 -4 20 -10 0 -5 -1
-10 -2 -10 -2 0 -21 -7 -43 -15 l-40 -14 33 -1 c17 0 32 -4 32 -10 0 -5 -13
-10 -30 -10 -16 0 -30 -4 -30 -10 0 -5 19 -10 42 -10 26 0 38 -4 33 -9 -13
-12 -77 -17 -93 -7 -7 4 -12 2 -12 -5 0 -7 -3 -9 -7 -6 -8 9 -33 -12 -33 -27
0 -6 5 -4 10 5 5 9 20 15 32 14 13 -1 38 -3 56 -4 17 0 32 -6 32 -12 0 -6 -7
-8 -16 -5 -26 10 -64 -4 -64 -24 0 -14 9 -20 33 -23 l32 -4 -32 -1 c-34 -2
-41 -10 -22 -29 6 -6 8 -16 5 -22 -12 -19 -24 -12 -19 11 5 19 3 21 -7 11 -11
-10 -11 -18 -2 -38 7 -15 10 -30 7 -35 -3 -5 -1 -11 3 -14 5 -3 20 -46 32 -95
13 -50 27 -88 32 -85 4 3 5 -2 2 -11 -8 -21 17 -105 30 -98 5 4 7 -1 3 -11 -6
-15 19 -135 31 -146 3 -3 2 5 -1 18 -3 12 -1 20 4 16 5 -3 9 -12 9 -20 0 -12
236 -14 1770 -14 l1770 0 0 725 0 725 -250 0 c-241 0 -252 1 -280 22 -16 11
-26 26 -23 31 3 6 1 7 -4 4 -10 -6 -34 10 -127 86 -22 18 -43 32 -47 32 -17 0
-138 108 -132 118 3 5 1 7 -4 4 -6 -4 -35 15 -65 41 -90 76 -218 184 -278 231
-92 74 -200 172 -200 182 0 5 288 9 705 9 l705 0 0 618 c0 402 -4 612 -10 602
-5 -8 -10 -45 -10 -82 0 -62 -11 -87 -23 -55 -4 9 -6 9 -6 0 -2 -21 -21 -15
-21 6 0 11 -4 23 -10 26 -5 3 -10 19 -10 34 0 15 -6 35 -13 45 -12 17 -14 17
-20 2 -10 -25 -34 -19 -42 12 -7 25 -8 25 -15 7 -5 -11 -9 -38 -9 -60 -2 -59
-11 -90 -23 -73 -7 10 -11 10 -15 1 -3 -8 -23 -13 -49 -13 l-44 0 -2 43 c-1
23 -5 -32 -8 -123 l-6 -165 -3 205 c-1 113 -6 196 -10 185 -5 -12 -11 34 -15
115 -4 74 -11 200 -16 280 -18 285 -19 339 -2 332 13 -5 14 5 6 74 -4 43 -9
99 -10 124 -1 25 -4 52 -7 60 -3 8 -24 69 -46 135 -22 66 -41 113 -41 104 0
-9 -7 -16 -15 -16 -11 0 -13 6 -9 20 4 14 3 17 -7 12 -9 -6 -11 -4 -6 8 3 9 0
18 -9 21 -8 3 -14 13 -14 23 0 15 2 16 10 3 8 -12 10 -11 10 7 0 12 8 27 18
32 16 10 16 10 0 11 -10 0 -18 6 -18 13 0 7 -13 28 -28 47 -16 19 -38 51 -50
72 -37 60 -60 58 -83 -5 -11 -32 -11 -39 0 -47 8 -4 12 -17 9 -28 -4 -14 -2
-19 7 -16 7 3 15 -4 18 -15 3 -14 13 -21 30 -21 14 0 29 -5 32 -11 10 -14 -63
-1 -93 18 -13 8 -38 38 -57 68 -41 64 -87 99 -118 91 -12 -3 -36 -20 -52 -37
-25 -26 -26 -31 -10 -26 53 15 95 34 88 40 -3 4 -2 7 4 7 22 0 44 -38 38 -66
-4 -21 -3 -24 3 -10 8 18 9 18 15 3 3 -9 3 -24 0 -34 -5 -12 -3 -14 8 -9 8 4
6 1 -3 -7 -10 -8 -15 -17 -11 -20 3 -4 1 -7 -5 -7 -7 0 -12 -4 -12 -10 0 -5 7
-10 15 -10 8 0 15 -8 16 -17 0 -16 1 -16 8 1 7 18 8 18 14 2 4 -10 7 -26 7
-37 0 -11 7 -22 15 -25 30 -12 14 -19 -32 -15 -41 3 -46 1 -35 -11 6 -8 10
-17 8 -19 -2 -2 -6 -21 -9 -41 -4 -27 -1 -42 9 -53 14 -13 13 -15 -10 -15 -14
0 -26 5 -26 10 0 6 -5 10 -11 10 -5 0 -7 -5 -3 -11 4 -7 0 -9 -12 -6 -11 3
-43 9 -71 12 -29 4 -55 11 -59 16 -3 5 -10 9 -16 9 -23 0 16 -30 54 -42 l40
-12 -5 -125 c-2 -69 0 -139 5 -156 11 -41 2 -68 -20 -56 -9 4 -22 6 -29 4 -20
-7 -33 59 -30 154 2 65 -1 94 -9 97 -14 5 -27 -21 -18 -36 4 -6 6 -48 5 -95
-2 -84 12 -151 33 -165 7 -5 4 -8 -6 -8 -10 0 -18 5 -18 12 0 6 -3 8 -6 5 -13
-13 17 -35 41 -31 20 4 23 1 20 -18 -3 -12 -10 -26 -16 -32 -9 -8 -10 -5 -6
12 3 12 1 20 -4 16 -5 -3 -9 -22 -10 -42 -1 -20 -5 -48 -10 -62 l-9 -25 4 27
c2 15 -1 25 -5 22 -5 -3 -9 -22 -9 -43 0 -20 -6 -43 -12 -50 -11 -10 -10 -11
4 -6 9 4 19 14 21 23 3 10 3 -2 1 -25 -3 -37 -2 -40 16 -36 11 3 20 1 20 -4 0
-18 -51 -5 -77 19 -43 39 -65 76 -52 84 8 5 9 3 4 -6 -5 -9 -4 -11 4 -6 6 4 9
12 5 18 -3 5 -5 67 -3 136 2 70 4 165 5 212 1 135 2 140 24 140 17 0 20 7 22
50 4 108 6 102 -32 114 l-35 11 -13 105 c-7 58 -13 122 -14 143 -1 57 -18 44
-18 -15 -1 -46 -26 -181 -29 -153 -1 6 -6 3 -11 -5 -9 -13 -11 -13 -20 0 -8
12 -10 11 -10 -7 l0 -23 -277 0 c-283 0 -353 5 -353 23 0 7 60 8 180 3 l180
-7 0 66 c0 66 -8 78 -36 51 -19 -19 -18 -34 4 -39 13 -4 12 -5 -5 -6 -17 -1
-23 5 -26 32 l-3 32 -8 -32 c-10 -39 -26 -44 -26 -9 0 14 -4 28 -10 31 -6 4
-10 -15 -10 -49 0 -54 -11 -78 -26 -55 -5 8 -3 9 6 4 8 -5 11 -3 8 6 -3 8 -11
13 -17 11 -6 -1 -11 2 -11 8 0 6 -6 9 -12 8 -8 -2 -14 10 -15 32 -5 62 -26
139 -39 144 -18 7 -36 -28 -42 -78 -5 -49 -22 -70 -38 -48 -13 17 -44 25 -44
11 0 -20 -39 -8 -45 14 -12 43 -29 67 -46 67 -10 0 -22 7 -26 15 -5 9 -27 16
-56 17 -48 3 -54 7 -38 23 5 6 11 19 14 30 4 19 5 19 6 -2 1 -18 6 -21 39 -19
32 1 37 5 40 28 3 26 1 27 -50 31 l-53 3 59 2 c55 2 58 3 52 25 -3 12 -6 25
-6 30 0 4 -6 7 -14 7 -8 0 -16 6 -19 13 -4 9 -7 10 -18 0 -16 -16 -43 -17 -34
-3 4 6 -6 26 -22 44 -15 18 -46 56 -68 85 -22 28 -42 51 -45 51 -3 0 -11 -15
-18 -32 -12 -35 -71 -112 -79 -104 -3 2 14 31 37 64 24 33 39 65 36 71 -5 7
-56 11 -147 11 -135 0 -140 -1 -149 -22 -7 -18 -9 -19 -9 -5 -2 31 -63 17 -80
-19 -6 -13 -18 -24 -26 -24 -9 0 -22 -15 -30 -32 -19 -46 -70 -90 -113 -99
-31 -6 -33 -7 -9 -8 15 -1 27 -7 27 -14 0 -10 -18 -14 -62 -16 -73 -3 -83 -7
-63 -27 11 -12 15 -37 14 -102 -1 -62 -4 -75 -8 -47 l-6 39 -18 -26 c-9 -15
-17 -45 -17 -68 0 -25 -5 -40 -12 -41 -7 0 -4 -4 7 -9 13 -6 15 -9 5 -9 -13
-1 -13 -2 0 -11 10 -7 -26 -10 -111 -10 -91 0 -135 -4 -155 -15 -19 -9 -32
-11 -40 -4 -7 5 -18 8 -25 7 -8 -2 -13 3 -11 10 1 6 -2 12 -8 12 -15 0 -12 46
4 59 24 20 25 71 2 93 -11 10 -22 14 -24 8 -2 -5 -17 -10 -33 -10 -21 0 -29
-5 -29 -18 0 -10 4 -22 10 -28 17 -17 25 -130 10 -139 -9 -5 -11 -4 -6 3 4 7
1 12 -9 12 -10 0 -13 -5 -9 -12 5 -8 2 -9 -10 -5 -10 4 -21 7 -24 7 -4 0 0 5
8 11 11 8 7 9 -17 5 -32 -5 -33 -5 -34 32 -1 20 -2 42 -4 47 -1 6 -3 16 -3 23
-3 17 -22 15 -22 -3 0 -14 -12 -19 -32 -16 -5 0 -8 -10 -8 -24 0 -16 -6 -25
-15 -25 -8 0 -15 7 -15 16 0 8 5 12 10 9 16 -10 12 21 -5 35 -12 10 -18 10
-31 -1 -15 -12 -19 -11 -32 9 -20 31 -32 27 -33 -10 -1 -18 -6 1 -13 42 -6 41
-15 73 -20 70 -6 -3 -9 -45 -7 -94 2 -68 0 -87 -10 -81 -9 6 -11 1 -6 -21 l6
-29 -117 7 c-64 3 -138 7 -165 7 l-48 1 5 82 c3 51 1 87 -6 95 -7 9 -7 13 1
13 6 0 11 10 11 21 0 16 -5 20 -20 16 -10 -3 -21 0 -24 7 -2 6 -5 -5 -5 -25
-1 -20 -4 -51 -7 -68 -6 -28 -4 -31 17 -32 l24 0 -22 -9 c-16 -6 -23 -18 -23
-35 0 -15 4 -24 9 -21 5 4 7 -3 4 -14 -4 -15 -13 -20 -37 -19 -19 0 -25 3 -16
7 20 9 27 72 8 73 -7 1 -23 3 -35 4 -25 2 -29 -5 -12 -22 18 -18 19 -71 1 -78
-8 -3 -17 -3 -20 0 -3 3 0 5 7 5 7 0 9 5 6 10 -3 5 -15 10 -26 10 -24 0 -25
27 -1 33 13 4 12 5 -5 6 -12 0 -24 -5 -26 -11 -3 -7 -6 4 -6 24 l-1 38 -50 -1
c-38 -1 -50 -5 -50 -17 0 -8 -3 -13 -6 -9 -3 3 -3 15 1 26 5 17 15 21 51 21
l44 0 0 50 c0 28 -4 51 -10 51 -20 3 -25 4 -37 12 -8 5 -14 -9 -21 -45 -9 -51
-10 -52 -11 -14 0 22 -4 36 -7 33 -4 -4 -15 3 -25 15 l-19 21 0 -21 c0 -15 -5
-20 -20 -17 -11 2 -20 -2 -20 -8 0 -7 -5 -4 -11 6 -5 9 -7 22 -4 27 3 6 1 10
-4 10 -6 0 -11 -5 -11 -12 0 -6 -3 -8 -7 -5 -3 4 -12 -2 -20 -13 -19 -26 -33
-25 -33 3 0 18 -2 19 -10 7 -8 -12 -10 -12 -11 5 l0 20 -9 -20 c-5 -11 -9 -50
-9 -87 -1 -61 1 -67 22 -71 l22 -4 -22 -2 c-17 -1 -23 -7 -23 -25 0 -13 6 -27
13 -29 6 -3 -9 -6 -35 -6 -27 -1 -48 3 -48 8 0 5 -3 18 -6 28 -4 13 -3 15 4 4
7 -10 11 -10 17 -1 4 6 -1 20 -10 30 -9 10 -14 24 -9 31 4 7 3 10 -4 5 -7 -4
-9 5 -5 31 7 47 -4 40 -12 -7 -10 -58 -17 -49 -10 13 5 37 4 57 -3 57 -6 0
-13 10 -15 22 -2 13 -6 -13 -7 -57 l-4 -80 -6 70 c-4 39 -7 54 -8 35 -2 -23
-5 -31 -11 -22 -7 12 -24 18 -53 21 -5 1 -8 12 -8 26 0 21 5 25 29 25 16 0 38
3 48 7 13 6 4 10 -32 14 l-50 6 48 1 47 2 0 90 0 90 -184 0 -184 0 -7 -75 c-4
-41 -5 -81 -2 -89 4 -10 24 -16 59 -19 l53 -3 -57 -2 c-65 -2 -81 -22 -18 -22
46 0 53 -18 18 -44 -15 -10 -17 -14 -5 -10 12 4 17 1 17 -11 0 -11 -7 -15 -22
-13 -27 4 -25 12 -27 -149 -1 -102 -4 -123 -16 -123 -11 0 -15 11 -15 39 0 22
4 42 9 46 9 5 8 21 -4 95 -2 14 -4 48 -5 75 -2 44 -3 47 -10 20 -6 -24 -8 -26
-9 -7 -1 31 -19 28 -24 -5 -4 -27 -4 -26 -6 4 -1 22 4 33 17 36 11 3 9 5 -8 6
-24 1 -25 -1 -25 -63 0 -36 4 -68 8 -72 10 -10 9 -72 -2 -78 -5 -4 -7 3 -4 14
3 12 -2 29 -12 40 -10 11 -15 26 -12 34 3 8 2 16 -3 18 -4 2 -16 39 -24 83 -9
44 -25 108 -36 141 -22 70 -45 203 -36 211 3 4 6 -1 6 -11 0 -9 4 -14 10 -11
16 10 -14 57 -60 94 -31 25 -39 28 -31 13 13 -25 14 -32 2 -32 -4 0 -12 15
-17 33 -7 23 -20 37 -48 50 -24 11 -36 23 -33 32 3 7 -5 44 -18 81 -13 38 -22
70 -20 72 5 6 31 -58 40 -97 4 -20 13 -31 23 -31 10 0 13 3 7 8 -6 4 -18 45
-27 90 -17 82 -39 132 -58 132 -6 0 -10 -6 -10 -13 0 -14 -35 -39 -44 -30 -3
4 -6 14 -6 24 0 9 -9 19 -20 22 -23 6 -45 -24 -37 -53 3 -11 0 -17 -7 -14 -9
3 -77 -145 -76 -168 0 -5 9 -8 19 -8 41 0 29 -19 -21 -36 -59 -19 -114 -51
-141 -82 -18 -20 -18 -21 3 -42 20 -20 20 -23 5 -52 -8 -17 -15 -39 -15 -49 0
-22 -21 -70 -36 -84 -12 -11 -32 -47 -58 -107 -8 -21 -20 -38 -26 -38 -5 0 -7
-7 -4 -15 8 -20 -10 -19 -30 1 -15 14 -16 14 -16 -5 0 -12 6 -20 13 -19 7 2
11 -7 10 -22 -1 -14 -3 -40 -4 -58 -2 -24 -10 -37 -31 -50 -15 -9 -28 -25 -29
-37 0 -11 -3 -15 -5 -8 -3 7 -12 9 -20 6 -8 -3 -14 -2 -13 3 1 5 1 26 0 47 -1
35 -3 37 -34 37 -18 0 -42 6 -52 14 -18 13 -18 14 2 20 12 4 33 4 48 0 25 -6
26 -5 23 27 -3 29 -7 34 -32 37 -16 2 -32 -2 -37 -10 -7 -10 -9 -9 -9 5 0 19
-11 22 -26 7 -7 -7 -11 -6 -11 5 0 8 6 15 13 15 6 0 19 11 27 24 22 33 23 246
2 246 -12 0 -11 5 1 28 13 26 13 27 -14 32 -21 3 -15 5 22 10 29 3 51 11 54
19 3 8 0 11 -7 7 -13 -8 -54 17 -44 27 3 4 -7 8 -23 8 -23 1 -25 3 -6 6 28 6
28 10 -4 40 -45 41 -69 46 -96 18 -13 -14 -29 -25 -37 -25 -7 0 -11 -6 -7 -15
4 -11 -2 -15 -22 -16 -16 -1 -20 -3 -10 -6 10 -3 15 -10 11 -19 -5 -13 -7 -13
-14 -2 -7 10 -9 9 -9 -4 0 -9 -3 -23 -6 -32 -5 -12 5 -16 53 -18 53 -4 55 -5
26 -12 -46 -12 -46 -45 0 -47 l32 -2 -30 -5 -30 -5 25 -7 c23 -8 23 -8 -7 -9
-25 -1 -33 -5 -33 -20 0 -10 8 -25 17 -32 9 -8 14 -9 10 -2 -5 8 1 9 20 4 17
-5 29 -15 30 -27 1 -12 0 -13 -3 -4 -3 11 -14 15 -38 12 -31 -4 -34 -7 -32
-35 1 -25 6 -33 26 -38 l25 -7 -27 -1 c-24 -1 -28 -5 -28 -31 0 -28 2 -30 39
-30 l39 0 -4 48 c-3 36 -2 41 5 22 5 -14 9 -44 10 -67 1 -23 7 -48 14 -55 11
-11 1 -13 -60 -10 -71 4 -73 4 -72 -19 1 -20 2 -20 6 -5 4 14 7 16 13 6 7 -11
11 -11 24 -1 13 11 16 11 16 0 0 -12 2 -12 9 0 6 9 10 10 12 2 3 -7 14 -13 27
-14 26 -2 31 -37 7 -57 -13 -11 -14 -10 -8 5 5 15 3 17 -11 12 -10 -4 -22 -7
-27 -7 -5 0 -9 -4 -9 -10 0 -5 7 -7 16 -3 13 5 15 2 9 -16 -6 -19 -4 -21 19
-15 16 4 26 2 26 -5 0 -6 16 -11 35 -11 30 0 34 -2 23 -14 -7 -8 -15 -12 -17
-10 -2 2 -14 -4 -25 -13 -12 -10 -15 -11 -8 -3 19 22 15 28 -18 26 -16 -1 -31
3 -33 8 -2 7 -10 6 -20 -3 -13 -10 -17 -10 -17 -1 0 10 -3 10 -15 0 -8 -7 -21
-10 -29 -7 -10 4 -16 -5 -21 -31 l-7 -37 -13 25 c-7 14 -12 28 -9 31 2 3 -8 4
-21 1 -15 -2 -25 0 -25 7 0 6 -4 11 -10 11 -5 0 -10 -7 -10 -15 0 -13 -4 -14
-21 -5 -13 8 -30 8 -47 2 -15 -5 -40 -5 -55 -1 -21 6 -30 4 -34 -7 -3 -8 -9
-14 -15 -14 -5 0 -6 5 -2 12 5 8 2 9 -10 5 -10 -4 -21 -7 -25 -7 -3 0 -8 -12
-9 -27 -4 -52 -12 -35 -12 27 0 35 -5 115 -11 177 -11 104 -14 113 -33 113
-32 1 -56 24 -56 54 0 20 -5 26 -22 27 -23 1 -74 -1 -93 -4 -5 -1 -9 3 -10 10
0 6 -3 15 -7 19 -9 8 -68 -15 -68 -27 0 -14 28 -11 33 4 4 9 6 9 6 -1 1 -8 -8
-16 -18 -19 -11 -3 -22 -15 -24 -27 -4 -21 -4 -21 -6 2 -1 15 -7 22 -20 22
-16 0 -19 -6 -15 -32 3 -25 2 -28 -5 -13 -5 11 -7 23 -5 27 3 4 0 9 -5 13 -6
3 -8 12 -5 19 3 8 1 17 -5 21 -6 3 -11 1 -11 -5 0 -6 -5 -8 -11 -5 -6 4 -13
-2 -16 -14 -5 -21 -43 -30 -43 -10 0 5 4 8 9 4 5 -3 12 -1 15 4 3 5 -6 12 -21
16 -25 6 -56 -15 -33 -23 6 -2 10 -73 10 -173 0 -94 -4 -168 -8 -165 -4 2 -9
-19 -10 -47 l-2 -52 295 3 c258 3 294 2 289 -12 -3 -8 -12 -17 -20 -20 -21 -8
-17 -32 9 -44 16 -8 -63 -10 -303 -10 -179 0 -315 3 -302 5 l23 5 -7 194 c-6
174 -5 194 10 200 12 4 16 19 16 54 0 39 -4 49 -20 53 -13 3 -18 11 -14 20 3
8 1 18 -5 22 -7 4 -11 -5 -11 -24 0 -17 -5 -31 -11 -31 -7 0 -9 10 -5 26 6 21
4 25 -11 22 -13 -2 -20 -16 -24 -48 -6 -43 -6 -44 -9 -10 -1 19 -2 38 -1 42 2
14 -28 -4 -33 -20 -3 -10 -7 -90 -8 -180 -2 -97 -6 -150 -10 -130 -4 18 -5 92
-1 164 5 119 4 131 -12 138 -10 3 -24 1 -31 -5 -18 -15 -18 -58 0 -65 10 -4
14 -20 13 -53 -2 -40 -5 -47 -23 -49 -12 -1 -25 6 -28 15 -5 13 -4 14 9 3 13
-11 14 -10 9 4 -3 9 -10 16 -16 16 -11 0 1 43 13 48 18 7 8 23 -10 17 -11 -3
-22 -2 -25 3 -3 6 2 12 12 14 10 3 18 14 19 26 1 15 -3 19 -13 15 -12 -4 -12
-8 -2 -21 11 -13 10 -14 -2 -10 -8 3 -15 15 -14 27 1 28 -2 27 -20 -6 -15 -28
-15 -27 -16 30 0 54 1 57 25 57 31 0 33 17 3 23 -20 4 -19 4 5 6 15 0 27 5 27
10 0 5 -9 7 -20 4 -14 -4 -20 0 -20 11 0 25 -28 19 -32 -6 l-3 -23 -23 23
c-12 12 -20 28 -16 33 4 7 -1 9 -15 4 -12 -3 -21 -2 -21 4 0 5 8 12 18 14 9 3
-57 4 -148 4 -91 0 -150 -2 -132 -4 28 -4 32 -7 26 -25 -4 -12 -1 -24 7 -30 8
-5 10 -11 4 -14 -14 -6 -7 -277 8 -286 7 -4 1 -11 -16 -17 -17 -7 -27 -18 -27
-31 0 -16 -7 -20 -34 -20 -28 0 -36 -5 -45 -27 l-10 -28 3 33 c3 17 0 32 -5
32 -6 0 -8 4 -4 9 8 13 -27 31 -61 31 -21 0 -25 3 -17 11 9 9 6 17 -8 32 -14
16 -16 23 -7 29 14 8 -8 13 -47 10 -17 -2 -18 0 -5 9 12 9 11 10 -8 6 -12 -3
-20 -1 -16 4 3 5 24 9 47 10 23 0 36 3 29 6 -10 4 -10 8 -1 19 19 23 4 41 -30
36 -31 -4 -42 10 -19 24 7 4 8 3 4 -4 -4 -7 -3 -12 3 -12 6 0 15 10 22 21 10
20 9 21 -15 15 -18 -4 -26 -2 -26 7 0 7 -6 21 -13 31 -12 16 -13 13 -14 -21
-1 -21 3 -44 9 -50 8 -10 5 -13 -10 -13 -11 0 -28 -7 -37 -16 -15 -16 -16 -16
-13 2 2 12 -2 18 -10 16 -8 -1 -11 1 -8 6 3 5 2 28 -2 52 -5 32 -13 45 -30 51
-23 9 -23 8 -18 -49 3 -31 5 -58 5 -60 1 -2 6 0 11 3 17 10 11 -33 -9 -75 -11
-22 -15 -42 -10 -46 5 -3 9 3 9 12 0 14 3 15 11 7 13 -13 33 1 42 28 2 8 3 1
1 -16 -3 -27 -2 -28 10 -13 7 10 16 15 19 11 4 -3 7 0 7 7 0 7 3 11 6 8 8 -9
-23 -65 -41 -71 -8 -4 -15 -14 -15 -22 0 -9 5 -13 10 -10 11 7 14 -55 4 -103
-5 -24 -11 -29 -30 -28 -16 1 -24 7 -24 19 0 16 -5 17 -32 12 -34 -8 -51 -23
-42 -37 3 -4 85 -8 182 -8 97 0 184 -5 192 -10 10 -6 -52 -9 -175 -7 -104 1
-316 -1 -470 -4 -154 -3 -236 -4 -183 -2 54 2 98 7 98 11 0 4 56 7 125 7 93 0
125 3 125 13 0 6 -4 12 -10 12 -5 0 -10 5 -10 11 0 21 -27 37 -54 32 -26 -5
-27 -5 -14 16 7 13 20 20 30 18 24 -7 21 71 -3 78 -15 5 -16 9 -4 32 15 28 11
48 -7 37 -8 -5 -9 -1 -5 10 14 37 19 67 11 65 -38 -7 -44 1 -44 56 0 52 -1 55
-25 55 -22 0 -25 -4 -25 -34 0 -19 -5 -38 -10 -41 -6 -4 -10 8 -10 30 0 22 -4
34 -10 30 -16 -10 -12 -75 5 -81 8 -4 15 -17 15 -31 0 -16 -4 -22 -12 -17 -8
5 -9 2 -3 -12 9 -20 10 -38 7 -97 -1 -21 -6 -36 -11 -33 -5 3 -8 -12 -7 -34 1
-23 -3 -45 -10 -51 -14 -11 -131 -16 -141 -5 -11 10 1 16 53 23 27 3 55 13 63
20 19 20 30 77 31 156 0 60 -2 67 -20 67 -18 0 -20 -7 -20 -62 0 -83 -7 -105
-35 -112 -12 -3 -25 -15 -28 -27 -4 -13 -10 -18 -18 -13 -8 5 -10 3 -4 -6 6
-10 3 -12 -13 -8 -18 5 -21 1 -25 -31 -2 -20 -4 12 -5 71 -2 104 -2 106 -24
102 -13 -2 -17 -2 -11 2 7 3 13 11 13 16 0 6 -3 9 -6 5 -3 -3 -17 -2 -30 3
-22 9 -23 7 -27 -48 -2 -31 -4 81 -5 250 l-2 306 93 6 c50 4 475 8 942 10 468
2 857 5 865 7 8 3 21 8 28 12 7 5 12 3 12 -5 0 -9 3 -9 10 2 5 8 10 10 10 4 0
-7 97 -9 318 -7 174 2 451 5 615 7 164 1 301 7 306 12 4 5 18 34 31 64 33 81
48 99 86 106 74 14 109 -18 140 -128 l16 -57 72 -6 c92 -9 198 -3 261 15 28 8
52 16 54 17 3 2 -9 18 -26 36 -29 30 -32 39 -41 142 -8 93 -7 114 6 136 10 19
21 25 36 22 16 -4 18 -2 7 5 -10 7 -3 12 27 17 23 3 46 13 53 21 6 8 18 14 26
14 7 0 33 10 56 22 50 25 187 37 187 16 0 -19 75 -21 90 -3 7 8 16 12 21 9 5
-3 9 2 9 11 0 8 12 20 28 26 15 5 34 12 42 16 8 3 18 7 23 8 4 2 10 4 15 5 21
7 38 3 49 -10 11 -13 12 -12 13 5 1 18 1 19 11 3 5 -10 18 -18 27 -18 53 -1
152 -60 152 -92 0 -10 4 -18 10 -18 25 0 -50 -82 -101 -109 -59 -32 -129 -92
-129 -111 0 -6 -4 -8 -10 -5 -6 3 -10 0 -10 -7 0 -10 -22 -13 -83 -14 -70 -1
-89 -5 -120 -25 -22 -14 -37 -32 -37 -44 0 -14 -3 -16 -8 -7 -6 9 -12 5 -22
-13 -17 -32 -6 -44 52 -56 55 -12 1415 -28 2426 -29 l782 -1 0 -379 c0 -347
-1 -380 -17 -380 -15 0 -15 -1 0 -18 10 -10 14 -22 10 -25 -3 -4 5 -7 19 -7
l25 0 0 943 c1 1635 5 2286 14 2227 5 -30 9 -81 10 -113 0 -31 4 -55 9 -52 14
9 22 -47 21 -150 0 -55 7 -140 15 -190 9 -49 18 -117 19 -150 2 -33 8 -82 14
-110 26 -127 60 -587 46 -622 -9 -26 29 -606 42 -626 4 -7 7 -23 7 -37 -1 -22
-1 -22 3 -2 7 39 34 27 33 -15 -2 -65 13 -274 20 -278 3 -2 5 10 4 28 -2 18
-1 23 3 12 5 -17 7 -16 18 10 8 21 9 34 2 43 -14 18 8 41 24 25 13 -13 42 -6
33 8 -3 5 -10 7 -15 4 -5 -4 -9 -2 -9 4 0 5 4 11 9 13 5 2 12 17 16 33 5 24 4
27 -5 15 -9 -12 -11 -7 -6 23 2 20 0 37 -5 37 -14 0 18 57 36 63 8 4 15 13 15
21 0 8 12 27 26 43 17 18 23 34 20 49 -5 20 14 50 25 39 3 -2 3 11 1 30 -3 27
-1 35 12 35 9 0 15 3 15 8 -4 24 4 33 11 12 7 -23 8 -23 9 -3 1 12 -7 29 -16
38 -12 13 -14 21 -6 34 5 9 10 36 11 61 1 31 -1 40 -7 30 -6 -8 -7 -18 -5 -22
3 -4 1 -8 -4 -8 -10 0 -11 -31 -1 -40 3 -3 -1 -16 -8 -30 -7 -14 -13 -19 -13
-12 0 20 -18 14 -25 -9 -4 -12 -2 -26 4 -32 16 -16 14 -27 -5 -27 -13 0 -15
-7 -10 -30 3 -16 1 -30 -3 -30 -5 0 -12 -14 -16 -31 -5 -20 -12 -29 -20 -25
-8 3 -15 1 -17 -5 -2 -5 -3 13 -3 40 -1 27 3 47 7 45 4 -3 5 2 2 10 -5 14 -10
13 -32 -4 -14 -11 -29 -17 -33 -13 -7 7 -14 80 -10 111 2 24 21 1 21 -26 l0
-27 21 34 c13 22 18 42 14 58 -4 16 1 30 14 45 11 11 18 24 16 28 -7 12 23 46
32 36 4 -5 2 -11 -5 -13 -14 -5 -17 -33 -2 -33 5 0 12 16 16 35 6 31 8 34 19
19 11 -15 12 -15 18 5 7 27 -2 82 -16 99 -6 7 -6 12 -1 11 5 -1 15 -1 23 0 11
1 10 4 -4 15 -19 14 -31 8 -77 -39 -15 -16 -18 -17 -13 -3 4 9 22 29 42 44 31
24 34 30 28 60 -3 21 -2 34 5 34 5 0 9 19 9 43 l-2 42 -7 -40 -7 -40 -2 38 c0
20 -5 37 -11 37 -5 0 -9 -8 -8 -17 3 -35 -2 -54 -12 -48 -5 3 -10 16 -10 28 0
12 -7 30 -14 40 -14 18 -14 18 -19 0 -2 -10 -5 -44 -6 -75 0 -31 -7 -72 -14
-90 l-13 -32 -3 54 c-1 30 -3 70 -4 88 -1 17 -6 31 -11 29 -5 -2 -26 -31 -46
-65 l-38 -62 3 57 c2 32 5 58 6 58 1 0 3 144 4 320 3 407 16 1198 20 1205 2 3
6 94 10 201 3 107 11 244 16 305 5 60 14 170 19 244 6 74 15 146 20 160 5 14
16 57 25 95 9 39 25 88 36 110 10 22 21 55 25 73 4 17 13 37 20 43 8 6 14 20
14 31 0 11 11 33 25 50 27 31 33 58 13 58 -6 0 -9 3 -6 6 4 3 15 1 25 -4 15
-9 19 -7 20 8 1 13 -3 17 -15 13 -14 -4 -14 -3 -3 5 8 6 20 8 28 5 8 -3 19 8
28 31 9 20 28 42 45 51 17 9 30 20 30 25 0 6 11 10 25 10 14 0 25 6 25 13 1
16 41 62 63 70 9 3 17 13 17 21 0 15 16 35 87 113 18 19 33 38 33 42 0 5 9 16
21 27 14 13 19 27 17 46 -4 27 -4 27 14 11 17 -15 18 -15 19 3 1 10 5 -1 10
-26 4 -25 8 -749 9 -1610 1 -861 6 -1608 10 -1660 l8 -95 -2 92 c-1 72 2 89
12 81 8 -7 12 -46 12 -129 0 -100 -2 -119 -15 -119 -14 0 -14 -3 1 -24 13 -20
14 -40 8 -108 -4 -46 -11 -86 -17 -90 -7 -4 -11 -187 -11 -537 -1 -436 -3
-528 -14 -514 -28 39 -52 63 -63 63 -6 0 -1 -13 11 -30 18 -26 70 -133 70
-145 0 -3 -10 5 -21 16 -19 19 -30 21 -79 16 l-58 -5 -33 72 -34 71 -3 -53
c-2 -29 4 -78 12 -110 24 -93 77 -232 87 -227 4 3 6 48 2 99 -7 117 -4 130 34
114 37 -17 53 -33 53 -53 0 -9 5 -13 10 -10 6 3 10 -4 11 -17 0 -13 5 -32 10
-43 7 -16 9 -14 6 12 -2 18 0 33 5 33 4 0 8 -19 8 -42 1 -42 1 -43 15 -18 8
14 15 36 16 50 l1 25 8 -25 8 -25 1 25 c1 15 -5 32 -11 40 -7 8 -3 6 10 -4 16
-14 22 -16 22 -5 0 8 6 4 15 -9 12 -16 13 -27 5 -41 -15 -28 -12 -58 5 -58 12
0 15 17 14 91 -1 112 7 146 32 146 10 0 19 -4 19 -8 0 -19 50 -30 109 -25 l61
6 0 253 0 254 -70 0 c-41 0 -70 4 -70 10 0 7 26 9 70 7 l71 -4 -2 261 c-1 144
-4 253 -6 244 -3 -10 -8 -18 -13 -18 -5 0 -4 15 2 33 6 17 13 90 15 162 l5
130 -44 -40 c-52 -47 -68 -77 -62 -111 3 -16 1 -23 -6 -19 -6 4 -7 -1 -3 -11
5 -14 10 -11 22 17 9 19 22 38 28 42 7 4 13 13 13 19 0 6 -7 5 -17 -3 -15 -11
-16 -11 -6 1 18 19 43 21 43 3 0 -8 -11 -28 -25 -45 -31 -37 -32 -52 -2 -37
l22 11 -23 -21 c-13 -13 -27 -19 -35 -15 -7 5 -5 0 3 -11 14 -17 14 -18 -7 -7
-22 12 -22 11 -21 -63 1 -41 -2 -78 -7 -82 -4 -5 -5 0 -2 10 4 9 2 17 -3 17
-6 0 -10 -9 -10 -20 0 -11 7 -20 16 -20 11 0 14 -6 8 -22 -4 -13 -11 -38 -15
-57 -4 -19 -13 -37 -19 -41 -6 -4 -8 -15 -4 -25 5 -13 4 -16 -4 -11 -7 4 -12
16 -12 27 0 35 -18 20 -25 -21 -4 -22 -11 -40 -17 -40 -6 0 -8 -7 -5 -15 4 -8
2 -17 -2 -20 -5 -3 -7 -14 -4 -25 4 -13 0 -20 -9 -20 -11 0 -15 13 -14 55 1
30 -2 55 -6 55 -10 0 -8 784 2 935 5 87 7 97 9 50 l3 -60 9 45 c20 100 30 460
38 1330 10 1052 20 1592 32 1585 4 -3 10 12 12 32 2 21 5 -50 7 -157 1 -107 5
-278 9 -380 5 -168 7 -148 12 214 4 295 8 401 17 404 7 2 12 22 13 45 0 23 3
37 6 30 3 -10 9 -10 26 0 56 31 57 34 57 144 l0 103 -5120 0 -5120 0 0 -320z
m2992 -1075 c3 3 11 -1 17 -9 12 -14 45 -11 37 3 -6 8 43 6 73 -4 12 -3 19
-10 16 -15 -3 -5 0 -12 6 -16 7 -4 9 -3 5 4 -9 15 33 42 66 42 21 0 28 -5 28
-20 0 -10 -7 -23 -16 -28 -25 -14 -13 -47 19 -50 15 -2 27 -8 27 -13 0 -6 5
-7 10 -4 6 3 10 0 10 -7 0 -8 -10 -19 -22 -24 -13 -6 -18 -9 -13 -8 15 2 2
-125 -15 -153 -22 -35 -56 -49 -77 -32 -16 13 -17 12 -4 -3 12 -17 10 -18 -30
-18 -70 0 -263 32 -277 46 -10 11 -1 21 52 56 36 23 64 44 62 46 -3 2 -59 -6
-126 -17 -150 -26 -146 -26 -153 -1 -3 11 0 20 6 20 7 0 5 5 -3 10 -12 8 -12
10 5 10 11 1 79 18 152 38 l132 38 -99 0 c-54 -1 -102 3 -107 7 -10 11 38 48
54 42 7 -2 15 1 19 7 5 7 2 8 -6 3 -8 -5 -11 -4 -6 3 4 6 14 8 23 5 10 -4 14
-2 10 4 -4 6 3 19 16 29 l22 19 -19 -22 c-11 -13 -16 -23 -11 -23 4 0 2 -7 -5
-15 -11 -13 -10 -14 4 -9 9 3 16 12 16 20 0 10 7 10 36 -2 33 -14 38 -14 54 1
17 15 19 14 39 -13 27 -39 27 -42 -6 -43 l-28 -2 26 -4 c16 -3 29 -14 37 -31
l11 -27 -6 30 -6 30 29 -26 c34 -31 70 -44 79 -29 3 6 -3 10 -14 10 -11 0 -35
13 -52 28 -37 33 -34 66 6 76 32 8 32 24 1 24 -16 0 -28 -9 -36 -27 -9 -19
-14 -22 -18 -11 -3 8 -14 22 -26 31 -19 16 -21 16 -34 0 -7 -9 -11 -10 -7 -3
3 6 1 12 -5 12 -6 0 -8 5 -5 10 3 6 1 10 -4 10 -6 0 -11 5 -11 12 0 6 7 4 18
-5 10 -10 21 -15 24 -12z m2935 -40 c49 -12 70 -23 97 -52 20 -21 36 -43 36
-50 0 -6 6 -13 12 -15 9 -3 13 -29 12 -84 0 -92 -20 -140 -83 -201 -134 -130
-156 -142 -184 -103 -8 11 -17 17 -20 13 -4 -3 -7 2 -7 11 0 10 -23 43 -50 73
-65 71 -81 103 -87 173 -6 68 16 126 71 187 19 22 32 43 29 47 -4 4 -1 5 7 2
8 -3 31 -1 50 3 49 12 48 12 117 -4z m-1729 -45 c30 -13 42 -25 42 -40 0 -26
-55 -60 -98 -60 -66 0 -127 47 -106 81 9 16 65 38 94 38 14 0 44 -8 68 -19z
m1042 5 c38 -20 38 -37 -1 -69 -49 -42 -147 -33 -178 15 -14 24 -2 45 34 59
33 14 114 11 145 -5z m1101 3 c29 -8 39 -16 39 -32 -1 -76 -140 -104 -203 -41
-27 27 -20 45 26 65 49 23 84 25 138 8z m237 -173 c12 -14 22 -28 22 -31 0 -9
23 -28 62 -52 52 -32 58 -60 22 -89 -16 -13 -33 -23 -38 -23 -14 0 -51 -45
-65 -79 -18 -43 -37 -39 -63 13 -16 35 -32 49 -70 67 -85 40 -82 65 12 124 22
14 40 31 40 37 0 13 39 58 50 58 3 0 16 -11 28 -25z m-2268 -74 c0 -13 -20
-25 -92 -57 -38 -15 -68 -31 -68 -35 0 -4 10 -9 21 -12 14 -4 45 7 86 30 35
19 67 32 70 29 4 -3 2 -6 -3 -6 -6 0 -19 -8 -30 -17 -10 -10 -39 -31 -62 -46
-42 -27 -43 -29 -26 -48 9 -10 15 -21 13 -23 -15 -14 -479 -149 -487 -142 -1
2 17 13 40 24 24 12 37 21 30 22 -7 0 -58 -23 -113 -51 -156 -78 -134 -46 26
39 81 44 174 114 190 146 50 95 74 112 149 101 25 -4 46 -11 46 -16 0 -17 27
-9 66 18 21 15 59 32 84 39 56 16 60 16 60 5z m1080 -322 c133 -23 195 -42
253 -75 23 -13 50 -24 60 -24 9 0 17 -4 17 -10 0 -5 6 -10 14 -10 8 0 16 -4
18 -8 2 -5 28 -24 58 -44 58 -37 169 -142 231 -218 35 -43 85 -134 127 -230
28 -65 50 -135 94 -305 13 -48 11 -146 -3 -235 -6 -36 -12 -76 -14 -90 -6 -41
-55 -212 -72 -250 -30 -65 -187 -293 -241 -349 -30 -31 -70 -81 -89 -111 -46
-70 -55 -77 -114 -76 -27 1 -49 -2 -49 -5 0 -3 -33 -21 -72 -38 -40 -18 -92
-41 -115 -52 -23 -11 -66 -24 -95 -29 -29 -5 -69 -15 -89 -24 -20 -8 -40 -12
-44 -8 -3 4 -5 2 -4 -3 2 -6 -5 -20 -15 -31 -15 -18 -24 -20 -53 -14 -19 5
-45 17 -56 27 -12 11 -35 25 -50 31 -47 20 -224 61 -295 68 -44 5 -73 14 -86
26 -27 25 -150 108 -160 108 -10 0 -61 40 -105 82 -43 43 -181 214 -181 226 0
5 -8 20 -18 33 -10 13 -28 49 -41 79 -13 30 -32 71 -41 90 -10 19 -31 87 -46
150 -35 149 -44 167 -93 180 -36 9 -71 44 -71 70 0 22 55 66 80 64 59 -6 72
16 90 155 6 47 18 105 27 130 18 56 93 212 108 226 6 6 31 37 55 70 56 76 169
187 249 243 33 24 61 48 61 53 0 5 8 9 19 9 10 0 24 7 31 15 7 8 20 15 29 15
9 0 21 4 27 9 19 18 142 60 219 75 44 8 89 17 100 19 58 13 240 5 345 -14z
m1078 -83 c6 -13 33 -43 61 -67 61 -52 65 -78 19 -110 -38 -26 -68 -55 -68
-65 0 -10 -42 -54 -51 -54 -4 0 -21 21 -38 48 -16 26 -48 59 -70 72 -22 14
-41 33 -41 42 0 23 130 155 156 156 13 1 25 -7 32 -22z m-4561 -131 c434 0
446 -1 424 -43 -6 -11 -11 -38 -11 -60 0 -22 -6 -44 -12 -49 -7 -6 -46 -14
-87 -17 -40 -4 -85 -12 -99 -17 -20 -8 -29 -7 -37 5 -9 11 -21 12 -57 6 -28
-6 -60 -5 -80 0 -18 6 -54 10 -80 10 -31 0 -48 4 -49 13 0 10 -2 10 -6 0 -2
-7 -14 -13 -25 -13 -14 0 -18 5 -14 15 7 20 -23 33 -34 15 -4 -7 -13 -9 -20
-5 -8 5 -18 1 -26 -10 -7 -9 -28 -19 -46 -20 -18 -2 -35 -4 -38 -5 -3 -1 -8
-2 -12 -1 -7 1 -13 -32 -9 -52 1 -5 -3 -6 -9 -2 -5 3 -10 1 -10 -4 0 -6 6 -11
13 -11 8 0 7 -3 -3 -9 -22 -15 -25 -8 -28 61 -4 72 -9 81 -51 80 -33 -1 -41
15 -41 87 0 38 2 42 18 35 9 -5 202 -9 429 -9z m6983 -55 l0 -70 -32 5 c-17 3
-35 8 -39 10 -9 6 -22 -34 -19 -59 1 -13 -3 -17 -14 -13 -9 4 -16 2 -16 -3 0
-5 8 -11 18 -13 9 -3 -1 -5 -23 -6 -32 0 -44 5 -59 26 -11 14 -13 23 -6 18 9
-6 11 -4 5 5 -11 18 -13 60 -3 60 4 0 8 -6 9 -12 0 -10 2 -10 5 -1 8 19 -15
53 -36 53 -20 0 -26 16 -12 36 11 17 72 25 115 15 28 -7 48 -5 70 4 18 8 33
14 35 15 1 0 2 -32 2 -70z m-1401 48 c10 -9 15 -10 18 -2 2 8 17 9 46 3 23 -4
59 -8 80 -9 20 0 37 -1 37 -3 0 -1 -14 -27 -30 -57 -17 -30 -33 -63 -36 -72
-4 -10 -9 -18 -13 -18 -8 0 -6 -58 2 -66 8 -8 -1 -24 -14 -24 -5 0 -9 6 -9 13
0 8 -21 12 -72 12 -64 0 -73 2 -78 20 -3 11 -14 21 -25 22 -31 3 -54 8 -61 16
-11 11 -52 8 -60 -4 -4 -8 -9 -7 -15 2 -6 11 -13 11 -26 3 -13 -8 -21 -6 -36
9 -14 14 -26 17 -45 12 -15 -3 -46 -10 -69 -14 l-43 -8 -2 64 c-1 34 -2 71 -2
81 -1 14 11 18 84 23 173 11 355 10 369 -3z m1109 -1 c14 -18 25 -70 13 -62
-6 3 -13 -11 -17 -35 -4 -22 -11 -43 -15 -46 -5 -3 -7 -10 -4 -15 9 -13 -4
-49 -17 -49 -7 0 -7 4 0 13 27 32 -20 41 -113 22 -22 -5 -48 -8 -57 -7 -14 1
-18 -7 -18 -39 l0 -39 -41 0 -42 0 5 45 c5 38 3 44 -8 34 -11 -9 -14 -8 -14 1
0 7 -7 10 -15 6 -9 -3 -18 1 -22 10 -5 15 -7 15 -15 0 -8 -14 -11 -14 -28 2
-11 9 -20 22 -20 28 0 6 -6 17 -14 23 -11 9 -15 9 -20 -1 -3 -7 -3 -2 0 11 5
17 3 21 -6 16 -8 -5 -11 -4 -7 2 4 6 -3 22 -14 37 -15 19 -30 26 -53 26 -30 0
-38 -7 -87 -82 -37 -57 -62 -84 -77 -86 -12 -2 -22 1 -22 7 0 14 -62 10 -72
-4 -4 -5 -8 1 -9 15 -1 18 -4 13 -10 -15 -7 -38 -8 -37 -5 12 3 43 1 50 -9 37
-10 -15 -13 -15 -26 -2 -12 14 -15 14 -25 -1 -10 -13 -11 -11 -7 12 3 16 1 27
-6 27 -18 0 -14 81 5 95 24 17 878 19 892 2z m-5910 -3 c19 -6 22 -11 17 -32
-8 -33 -48 -89 -53 -74 -2 7 -13 7 -35 -2 -18 -8 -55 -16 -83 -20 -57 -7 -70
4 -58 50 4 17 1 26 -10 30 -16 6 -22 35 -9 47 8 9 200 9 231 1z m550 -44 c2
-29 -1 -40 -6 -31 -11 16 -17 7 -27 -36 -6 -30 -10 -33 -45 -33 -24 0 -40 5
-44 15 -3 8 -14 15 -25 15 -11 0 -22 4 -25 9 -3 4 -45 11 -93 15 -88 7 -123
22 -123 53 0 7 -8 17 -17 21 -34 13 47 20 227 18 l175 -1 3 -45z m-168 -291
c58 -11 134 -19 170 -19 104 2 100 4 99 -32 0 -18 -3 -27 -6 -20 -2 6 -10 9
-16 5 -7 -4 -25 -8 -42 -8 -87 -2 -115 -6 -129 -20 -8 -8 -21 -15 -28 -15 -7
0 -23 -7 -34 -14 -45 -32 -140 -54 -251 -59 -67 -3 -113 -2 -113 4 0 5 -5 9
-10 9 -7 0 -7 -8 1 -22 10 -19 8 -24 -12 -41 -13 -11 -23 -24 -21 -29 1 -5 4
-32 7 -60 2 -27 7 -53 10 -56 9 -9 115 -11 110 -2 -3 4 4 18 15 30 11 13 20
18 20 12 0 -6 -5 -14 -11 -18 -6 -3 -9 -14 -6 -24 4 -17 -9 -19 -217 -22 -298
-4 -536 1 -536 13 0 5 14 9 31 9 39 0 59 20 60 62 1 27 3 23 11 -19 l9 -53 40
2 c27 1 36 4 27 10 -10 8 -10 11 1 15 8 3 33 23 56 44 55 51 89 52 134 5 18
-19 39 -32 46 -30 7 3 19 -1 27 -10 22 -22 51 -23 75 -2 18 16 19 21 7 33 -19
20 -18 50 4 62 15 9 14 10 -8 11 -20 0 -22 2 -10 10 8 5 11 10 5 10 -5 1 1 6
14 11 13 5 21 12 18 15 -3 3 -14 1 -25 -5 -30 -16 -52 -13 -52 5 0 10 -6 14
-15 10 -8 -3 -15 0 -15 7 0 8 -4 6 -10 -3 -5 -8 -10 -10 -10 -5 0 6 -43 10
-107 11 -374 3 -491 7 -563 18 -72 12 -80 12 -81 -3 0 -9 -6 -2 -12 16 -15 39
-37 64 -38 42 0 -7 -5 -3 -11 11 -6 15 -12 20 -15 13 -7 -18 -20 -16 -44 8
-29 29 -43 19 -50 -37 -5 -44 -6 -45 -7 -11 -1 20 -6 37 -12 37 -5 0 -10 -3
-10 -7 0 -5 -14 -8 -32 -7 -34 1 -46 18 -47 66 -1 27 1 27 52 26 166 -3 1379
16 1412 22 22 4 40 8 40 9 0 0 47 -8 105 -20z m5260 -7 c57 3 304 0 500 -5
l65 -2 -4 -45 c-1 -25 -4 -46 -5 -46 0 -1 -18 -4 -40 -7 -21 -3 -42 -10 -46
-17 -8 -13 -72 -20 -225 -23 -107 -2 -109 -3 -117 -27 -7 -24 -8 -24 -4 3 2
19 -3 32 -16 41 -15 11 -16 15 -6 20 7 3 1 4 -14 2 -16 -2 -28 1 -28 5 0 5 10
9 23 9 18 1 19 2 6 10 -23 14 -156 15 -172 1 -8 -6 -17 -8 -20 -4 -4 3 -7 -6
-7 -21 0 -16 -4 -25 -10 -21 -5 3 -10 1 -10 -5 0 -7 -7 -10 -15 -6 -10 3 -15
-1 -15 -12 0 -11 -3 -13 -8 -5 -5 9 -58 11 -190 10 -176 -2 -182 -1 -182 18 0
11 -3 43 -6 72 l-7 52 99 3 c55 2 164 2 244 0 80 -2 174 -2 210 0z m-6897
-274 c8 -379 0 -2377 -10 -2433 l-9 -50 -7 43 c-4 23 -12 42 -17 42 -6 0 -11
19 -12 43 l-1 42 -7 -45 c-4 -25 -8 -34 -8 -20 -1 13 -8 42 -16 65 -18 52 -39
184 -41 260 -1 33 -8 107 -16 165 -9 58 -15 131 -14 162 1 33 -2 55 -7 51 -6
-3 -9 14 -8 38 2 24 0 51 -4 59 -4 11 -3 520 3 870 1 46 67 595 83 692 6 37
15 65 20 62 4 -3 9 21 9 53 1 48 3 53 9 28 7 -26 8 -24 9 20 1 36 4 46 11 35
7 -11 10 -5 10 23 0 20 4 37 9 37 4 0 11 -109 14 -242z m2275 203 c11 -16 41
-41 66 -57 45 -28 51 -39 47 -78 -2 -20 -33 -56 -49 -56 -9 0 -54 -44 -75 -74
-19 -26 -45 -14 -82 36 -16 22 -48 51 -70 63 -52 28 -56 54 -13 89 18 15 54
47 80 71 51 49 64 49 96 6z m-696 -198 c8 -10 18 -26 21 -35 4 -10 11 -18 16
-18 5 0 13 -10 17 -22 4 -13 14 -28 23 -35 13 -10 8 -13 -34 -14 -76 -2 -149
2 -157 9 -6 7 15 102 27 122 10 17 71 11 87 -7z m-2382 -53 c21 -11 101 -45
177 -75 76 -31 197 -81 268 -112 l130 -55 -3 -607 c-2 -333 -7 -610 -11 -614
-8 -8 -14 22 -46 223 -14 82 -14 83 -10 20 3 -40 1 -57 -4 -45 -11 27 -25
-158 -16 -208 5 -23 3 -37 -3 -37 -5 0 -12 -18 -14 -40 -2 -29 0 -40 10 -40
20 0 73 -40 67 -50 -3 -4 4 -28 15 -51 24 -54 26 -83 4 -50 -13 18 -18 20 -25
10 -6 -10 -9 -10 -9 -2 0 6 5 15 10 18 6 3 10 11 10 16 0 6 -4 8 -9 5 -5 -3
-12 1 -15 10 -5 14 -9 14 -23 3 -12 -10 -14 -10 -9 -1 4 7 1 12 -8 12 -14 0
-21 -18 -17 -42 1 -8 -15 -12 -31 -9 -5 0 -8 -3 -8 -9 0 -5 5 -10 10 -10 6 0
12 0 15 0 3 0 14 -9 25 -20 12 -12 26 -18 32 -14 6 4 8 3 5 -3 -4 -6 5 -15 18
-21 20 -9 24 -19 25 -54 0 -24 1 -74 3 -113 l2 -70 -100 -7 c-55 -5 -185 -15
-290 -23 -268 -21 -245 -24 -244 33 1 26 3 39 6 29 2 -9 9 -15 14 -12 5 4 9 2
9 -3 0 -6 6 -12 14 -15 32 -13 55 153 26 188 -6 7 -8 15 -5 19 3 3 0 2 -7 -3
-7 -7 -18 -7 -30 0 -16 9 -18 5 -20 -48 -8 -217 -12 367 -7 987 5 658 13 910
26 910 2 0 21 -9 43 -20z m5865 -25 c19 -20 35 -44 35 -55 0 -25 -69 -100 -92
-100 -10 0 -21 7 -24 15 -4 8 -11 15 -16 15 -5 0 -23 9 -39 21 -22 16 -29 28
-29 55 0 21 5 34 13 34 7 0 24 11 37 24 36 36 72 33 115 -9z m2095 -122 c118
-4 234 -6 258 -5 l42 4 0 -76 0 -76 -40 0 c-34 0 -42 -4 -50 -25 -5 -14 -9
-29 -9 -33 3 -21 -2 -42 -11 -42 -5 0 -10 20 -10 45 l0 46 -82 -3 -83 -3 -6
-40 c-3 -22 -7 -34 -8 -27 -1 10 -6 10 -21 2 -11 -6 -20 -8 -20 -5 0 4 -6 3
-12 -2 -7 -4 -24 -8 -38 -8 -14 -1 -92 -5 -175 -9 -87 -4 -221 -3 -320 3 -126
8 -171 8 -174 -1 -2 -6 -9 -1 -16 12 -10 20 -14 21 -26 8 -12 -14 -15 -13 -26
1 -11 14 -12 13 -13 -9 l-1 -25 -11 25 -11 25 -7 -25 c-5 -15 -8 -18 -9 -8 -1
21 -111 31 -303 26 -75 -2 -134 0 -132 3 2 4 -5 9 -16 12 -11 3 -20 0 -20 -6
0 -8 -3 -8 -8 -2 -4 6 -42 11 -85 12 -65 0 -80 -2 -91 -18 -11 -17 -14 -5 -20
92 -5 77 -4 115 4 123 8 8 201 13 648 17 350 3 648 4 662 3 14 -2 122 -6 240
-11z m-5791 -8 c7 -7 5 -35 -4 -85 -7 -41 -14 -69 -14 -62 -1 6 -8 12 -16 12
-8 0 -16 10 -16 23 -1 12 -6 -3 -10 -33 -5 -30 -10 -60 -11 -67 -2 -13 -95
-27 -283 -43 -71 -6 -149 -16 -172 -23 -36 -9 -42 -15 -37 -32 4 -16 3 -17 -5
-5 -6 8 -8 22 -6 31 3 9 -3 22 -12 30 -16 13 -17 12 -4 -3 8 -11 9 -18 3 -18
-13 0 6 -61 22 -72 6 -4 26 -8 44 -8 38 0 95 -26 87 -40 -3 -5 -1 -11 5 -15 5
-3 10 -12 10 -20 0 -11 -6 -11 -31 2 -26 13 -59 15 -185 11 -111 -4 -154 -2
-154 6 -1 26 56 156 67 156 7 0 13 4 13 9 0 4 -26 8 -57 8 -32 0 -93 4 -136 9
-43 6 -80 7 -83 2 -3 -5 -10 -5 -16 -2 -6 4 -26 8 -43 9 -17 2 -41 5 -52 9
-11 4 -39 9 -62 11 -37 4 -43 1 -51 -20 -5 -14 -14 -25 -19 -25 -10 0 -21 35
-21 71 0 22 -5 28 -30 31 -16 2 -31 0 -33 -6 -9 -24 -17 5 -24 78 l-6 78 54
-6 c30 -3 133 -2 229 2 262 11 1047 9 1059 -3z m544 -8 c8 -12 -1 -177 -10
-187 -2 -3 -73 -6 -156 -7 -110 -2 -153 1 -159 10 -6 9 -8 9 -8 0 0 -7 -6 -13
-14 -13 -8 0 -17 17 -21 43 -4 23 -10 34 -12 25 -7 -28 -23 -21 -23 10 0 21
-2 24 -10 12 -8 -12 -10 -11 -10 6 0 12 -7 24 -15 28 -12 4 -15 -6 -16 -57 0
-34 -3 -55 -6 -47 -2 8 -8 24 -13 35 -12 29 -18 121 -9 137 12 19 118 26 309
21 113 -3 167 -8 173 -16z m617 -128 c0 -5 3 -8 8 -6 4 3 8 -18 9 -47 1 -28 5
-85 8 -126 6 -79 -5 -119 -25 -90 -5 8 -10 25 -10 38 0 13 -4 21 -9 18 -5 -4
-7 13 -5 36 3 32 2 36 -4 18 -7 -22 -9 -19 -15 24 -9 62 -9 131 0 139 10 11
43 8 43 -4z m-314 -31 c25 -9 35 -19 39 -42 14 -67 12 -65 57 -51 23 6 44 17
46 23 6 19 41 14 54 -8 9 -13 19 -18 35 -14 16 4 25 1 29 -10 9 -23 -13 -45
-38 -38 -13 3 -26 -1 -34 -12 -12 -17 -14 -17 -36 -2 -12 9 -39 16 -60 16 -35
0 -38 -2 -48 -42 -20 -77 -21 -79 -54 -55 -18 13 -34 109 -35 210 -1 41 0 42
45 25z m2772 -168 c7 -12 16 -19 20 -16 5 3 14 -5 22 -17 12 -21 12 -21 -5 -7
-18 15 -18 14 -1 -12 10 -16 25 -28 32 -28 8 0 14 -7 14 -15 0 -8 4 -15 9 -15
5 0 21 -20 35 -45 15 -25 29 -45 32 -45 3 0 2 6 -1 13 -4 6 0 3 9 -8 8 -11 20
-26 26 -33 6 -7 8 -16 5 -21 -3 -5 0 -13 6 -17 8 -5 9 -3 4 7 -5 8 -4 11 1 6
5 -5 9 -16 9 -25 0 -9 6 -16 13 -14 6 1 12 -4 12 -12 0 -8 6 -21 13 -28 7 -7
28 -35 47 -63 19 -27 44 -58 55 -69 11 -10 19 -22 17 -27 -4 -15 44 -80 53
-71 5 4 5 2 2 -4 -3 -5 3 -23 14 -40 23 -35 24 -54 4 -54 -13 0 -52 32 -166
136 -22 20 -26 18 -44 -16 -10 -19 -23 -30 -36 -30 -16 0 -19 -4 -14 -17 3
-10 9 -31 12 -48 3 -16 21 -69 40 -118 33 -81 37 -117 14 -117 -5 0 -32 28
-59 63 -28 34 -69 80 -91 102 -25 23 -41 48 -41 62 0 13 -4 23 -9 23 -5 0 -12
8 -16 18 -3 9 -26 40 -51 67 -83 92 -209 257 -210 276 -2 30 34 34 69 8 17
-12 36 -22 42 -22 7 0 12 -7 11 -16 -1 -10 6 -15 18 -13 12 2 16 -1 10 -9 -5
-9 -2 -10 12 -5 10 5 26 8 34 9 8 0 21 4 28 10 8 7 12 5 12 -7 0 -9 5 -16 11
-16 6 0 9 6 6 13 -2 6 -25 74 -51 150 l-47 139 22 19 c28 24 31 24 47 -1z
m-2554 -200 c20 -22 36 -42 36 -45 0 -17 -66 -75 -85 -75 -23 0 -75 56 -75 81
0 17 60 79 76 79 6 0 28 -18 48 -40z m4731 -96 c243 -8 239 -8 270 0 l25 6 -1
-107 c-1 -60 -4 -97 -8 -83 -4 15 -16 27 -31 30 -38 9 -50 -25 -50 -146 l0
-104 -39 0 c-35 0 -39 2 -34 21 4 12 0 25 -8 30 -11 7 -10 9 5 9 12 0 16 5 12
15 -7 19 3 47 15 39 5 -3 9 0 9 6 0 21 -112 8 -134 -15 -19 -20 -19 -20 -13 3
3 12 1 22 -4 22 -12 0 -11 -37 1 -61 6 -10 7 -19 2 -19 -13 0 -33 50 -25 63 3
7 -3 4 -14 -5 -24 -22 -40 -24 -19 -2 18 17 22 39 6 29 -5 -3 -10 -1 -10 6 0
10 -3 10 -12 1 -18 -18 -28 -15 -28 9 0 28 -19 61 -31 54 -5 -4 -9 2 -10 12 0
16 -1 16 -9 -2 -7 -17 -9 -17 -9 -2 -1 9 -5 17 -10 17 -5 0 -7 -8 -4 -19 5
-20 -12 -38 -21 -22 -9 14 -44 1 -49 -19 -3 -10 0 -38 5 -62 5 -23 10 -56 11
-73 2 -29 1 -30 -50 -33 -53 -3 -59 2 -55 39 1 4 -10 9 -24 12 -13 2 -22 2
-20 -1 3 -3 -3 -13 -15 -23 -14 -12 -16 -18 -7 -22 7 -3 -35 -6 -94 -6 -70 -1
-108 3 -108 10 0 5 5 7 10 4 6 -3 13 1 16 9 3 9 10 14 14 11 4 -3 7 6 6 19 0
13 -3 22 -5 20 -2 -2 -13 4 -24 13 -20 18 -20 18 -2 -10 10 -15 14 -31 10 -35
-4 -4 -10 -2 -12 4 -2 6 -10 20 -18 30 -14 18 -14 18 -15 -1 0 -12 5 -26 10
-31 22 -22 -1 -44 -46 -44 l-44 0 0 46 c0 25 4 43 9 40 5 -4 12 7 16 24 6 29
25 43 25 18 0 -6 2 -9 5 -6 10 10 -7 39 -20 34 -9 -3 -11 2 -7 17 5 20 4 20
-11 8 -10 -8 -17 -9 -17 -3 0 12 -90 33 -142 34 -18 0 -38 5 -45 10 -10 8 -55
6 -128 -6 -11 -2 -30 -4 -43 -5 -16 -1 -21 -5 -16 -13 6 -10 5 -10 -7 -1 -19
15 -256 7 -278 -10 -12 -9 -13 -9 -7 1 4 7 1 12 -9 12 -10 0 -14 -5 -10 -12 4
-7 -2 -3 -12 8 -10 12 -25 24 -33 28 -8 3 -4 4 9 3 13 -1 26 4 28 11 7 20 -61
15 -81 -7 -9 -10 -25 -17 -34 -15 -30 7 -44 -11 -44 -60 0 -25 -3 -46 -8 -46
-4 0 -9 54 -9 120 -1 67 -4 126 -6 133 -3 7 -1 19 5 27 8 13 92 16 617 20 334
3 637 4 673 3 36 -1 155 -5 265 -9z m-7013 -4 c66 13 1739 10 1755 -2 12 -9
10 -134 -3 -196 l-5 -24 -24 26 c-26 29 -41 33 -48 14 -3 -7 -6 -1 -6 13 -1
40 -21 49 -86 44 -65 -5 -63 -4 -68 -33 -2 -12 -9 -28 -16 -35 -7 -6 -11 -7
-9 -2 5 16 -34 61 -69 79 -70 36 -146 13 -191 -58 -30 -47 -41 -54 -53 -34 -6
9 -9 6 -9 -12 0 -20 -2 -22 -10 -10 -5 8 -10 11 -10 6 0 -5 -6 -3 -14 3 -8 7
-22 11 -32 9 -17 -3 -20 3 -38 83 -5 25 -36 37 -36 15 0 -6 -5 -4 -11 4 -9 12
-12 13 -16 1 -5 -11 -7 -11 -14 0 -6 9 -9 1 -9 -24 0 -26 4 -36 11 -31 9 5 10
-1 5 -22 -5 -21 -4 -25 4 -14 8 13 10 13 10 -2 0 -10 8 -18 18 -18 14 0 14 -2
3 -9 -11 -7 -10 -10 5 -14 10 -3 -3 -4 -31 -2 -27 2 -55 4 -62 4 -7 1 -10 8
-7 16 4 8 10 13 14 10 5 -3 6 3 3 14 -3 10 0 22 6 25 6 4 11 24 10 44 0 20 -3
31 -6 24 -4 -9 -9 -10 -18 -2 -10 8 -14 4 -20 -17 -5 -21 -8 -24 -16 -12 -7
12 -9 11 -9 -3 0 -10 -9 -23 -20 -30 -11 -7 -20 -18 -20 -25 0 -7 -7 -13 -15
-13 -8 0 -15 6 -15 14 0 15 -72 66 -94 66 -8 0 -17 4 -20 9 -14 22 -49 -4 -71
-53 -20 -44 -27 -90 -35 -218 -1 -17 -40 -7 -41 10 -1 14 -2 13 -7 -3 l-5 -20
-8 20 c-6 17 -8 17 -8 3 -1 -15 -11 -18 -71 -18 l-71 0 3 35 c1 19 6 35 11 35
5 0 5 6 -1 13 -7 8 -6 18 3 31 10 13 11 25 4 43 -5 14 -7 29 -4 34 4 5 -1 6
-9 3 -11 -4 -19 2 -24 17 l-9 23 -12 -22 c-7 -12 -16 -20 -21 -17 -6 4 -7 -2
-3 -12 7 -17 6 -17 -21 1 -16 10 -26 13 -22 8 3 -6 0 -29 -8 -52 -10 -31 -11
-44 -2 -53 6 -7 12 -29 13 -49 l2 -38 -53 0 c-67 0 -86 7 -86 31 0 17 3 18 20
9 26 -14 26 -2 0 20 -24 21 -17 60 12 60 10 0 17 -4 13 -9 -3 -5 -1 -12 5 -16
6 -4 8 -11 4 -16 -3 -5 -10 -6 -16 -3 -7 5 -8 2 -4 -5 5 -8 19 -10 37 -6 28 6
35 0 30 -28 -1 -5 2 -6 7 -3 14 8 7 51 -8 51 -7 0 -15 7 -17 15 -4 12 -3 12 5
2 7 -11 11 -10 16 4 3 9 4 19 1 22 -3 3 -5 1 -5 -5 0 -6 -9 -9 -20 -6 -11 3
-20 10 -20 15 0 5 -5 6 -11 2 -8 -4 -9 0 -4 15 8 26 -3 27 -21 4 -12 -17 -13
-17 -14 3 0 12 -7 27 -15 34 -8 7 -15 19 -15 26 0 8 -6 14 -14 14 -8 0 -16 5
-18 11 -5 16 -36 0 -44 -24 -6 -20 -7 -20 -19 3 l-12 23 -12 -21 c-14 -26 -15
-106 -1 -97 6 3 10 3 11 -2 1 -15 7 -38 14 -55 5 -12 3 -18 -6 -18 -10 0 -10
-3 -2 -11 18 -18 3 -39 -27 -39 l-28 0 -7 120 c-6 101 -9 119 -21 109 -11 -9
-14 -8 -14 2 0 11 -2 11 -10 -1 -9 -13 -10 -13 -11 0 0 8 -7 -5 -13 -30 l-13
-45 -1 55 c0 30 -4 82 -8 116 -8 76 -3 85 37 74 18 -6 51 -5 81 0z m5688 -251
c0 -6 -4 -7 -10 -4 -19 12 -10 -12 12 -31 18 -16 20 -16 15 -2 -5 13 4 17 53
23 62 7 104 0 94 -16 -3 -6 5 -7 23 -4 22 5 25 4 13 -5 -12 -9 -9 -11 16 -8
26 4 30 1 30 -22 0 -14 -4 -28 -10 -32 -6 -4 -1 -8 12 -8 12 0 22 -3 22 -8 0
-4 -47 -7 -105 -7 -71 0 -105 4 -105 11 0 16 -48 14 -54 -2 -8 -22 -36 -16
-45 8 -8 21 -8 21 -15 -5 -4 -17 -11 -24 -20 -21 -19 7 -26 52 -13 81 12 26
30 32 20 6 -4 -11 -3 -14 5 -9 7 4 12 14 12 22 0 8 4 14 9 14 5 0 13 9 16 20
6 20 25 19 25 -1z m-4373 -212 c244 -2 445 -6 448 -9 3 -3 3 -52 -1 -110 l-7
-104 -51 10 c-28 5 -69 14 -90 21 -51 16 -74 10 -69 -18 4 -22 -12 -47 -49
-76 -14 -10 -21 -11 -32 -2 -12 10 -72 5 -143 -12 -17 -4 -29 -17 -16 -17 6 0
13 -9 16 -20 4 -15 0 -20 -14 -20 -10 0 -22 0 -26 -1 -4 0 -9 4 -11 11 -2 6 1
9 8 8 18 -4 22 56 5 78 -13 19 -14 19 -29 -1 -13 -17 -18 -18 -36 -7 -23 14
-40 9 -40 -12 0 -8 -7 -19 -16 -26 -12 -11 -15 -11 -12 0 4 18 -29 25 -47 10
-11 -9 -15 -36 -16 -94 -1 -44 -3 -73 -6 -63 -2 9 -8 17 -13 17 -4 0 -6 9 -3
20 3 11 3 20 0 20 -4 0 -11 -18 -17 -40 l-11 -40 -439 0 -440 0 -2 138 c-1 75
-2 145 -1 155 0 12 -8 17 -31 17 -22 0 -27 -3 -17 -9 7 -5 10 -14 7 -20 -11
-18 -26 -13 -26 10 0 11 -4 18 -9 15 -5 -3 -7 -16 -4 -29 3 -12 3 -19 -2 -15
-7 7 -35 -14 -35 -26 0 -3 9 -6 20 -6 17 0 20 -6 18 -42 -1 -37 -2 -39 -5 -10
-2 17 -9 32 -15 32 -6 0 -8 -8 -6 -18 4 -12 -1 -18 -14 -19 -10 -1 -16 2 -13
7 3 5 0 12 -7 16 -7 4 -10 4 -6 -1 4 -4 2 -17 -3 -28 -16 -28 -29 -4 -29 53 0
56 -9 69 -43 72 -15 1 -27 7 -28 13 -1 5 -4 -1 -8 -15 -5 -17 -10 7 -15 73 -4
55 -5 101 -3 104 3 2 155 7 338 10 184 3 335 6 336 7 1 1 73 0 160 -1 87 -1
357 -4 600 -6z m5946 1 l47 3 0 -113 c0 -93 -2 -109 -13 -94 -9 12 -27 17 -65
18 -30 0 -56 -3 -59 -6 -4 -3 3 -6 15 -6 11 0 23 -4 26 -9 8 -13 -41 -20 -53
-8 -8 8 -11 7 -11 -1 0 -6 -7 -9 -15 -6 -11 5 -13 2 -8 -12 4 -11 3 -15 -4
-11 -11 7 -35 -16 -47 -43 -4 -10 -5 -8 -3 5 2 11 -5 28 -15 37 -16 16 -18 16
-33 -5 -14 -20 -15 -20 -15 -2 0 17 -2 18 -11 5 -9 -12 -10 -10 -6 8 4 18 3
21 -7 13 -16 -13 -164 -13 -188 0 -10 6 -18 16 -18 23 0 15 -42 27 -58 17 -6
-3 -12 -17 -15 -31 -4 -24 -4 -24 -6 3 0 16 -5 26 -11 22 -13 -8 -13 -209 -1
-253 l10 -32 -215 0 -214 0 0 89 c0 86 -1 90 -27 109 -45 31 -57 36 -49 24 4
-7 3 -12 -3 -12 -5 0 -11 16 -13 37 -3 40 -17 47 -79 37 -31 -5 -36 -9 -33
-27 2 -12 2 -17 -2 -10 -3 7 -12 9 -21 6 -11 -4 -14 -2 -9 5 10 17 0 15 -18
-4 -9 -9 -16 -11 -16 -4 0 6 -5 8 -10 5 -6 -4 -16 -2 -23 3 -20 16 -197 26
-197 11 0 -12 -37 25 -56 56 -11 20 -27 21 -149 15 -38 -1 -76 -7 -83 -13 -7
-5 -14 -8 -16 -6 -2 2 -6 38 -8 79 l-3 75 465 6 c256 3 652 3 880 0 228 -3
436 -4 463 -3z m-4229 -986 c-4 -9 -6 -25 -5 -34 1 -10 -1 -18 -6 -18 -4 0 -6
-22 -5 -49 3 -37 0 -50 -12 -54 -11 -4 -16 -1 -16 11 0 15 -2 15 -10 2 -5 -8
-10 -22 -10 -30 0 -11 2 -12 8 -3 12 19 32 0 25 -26 -4 -18 -11 -22 -29 -18
-21 4 -24 0 -24 -24 0 -16 -4 -29 -10 -29 -5 0 -1 -9 11 -21 11 -11 19 -30 17
-42 -3 -19 -10 -22 -58 -25 -30 -1 -65 0 -77 3 -20 5 -21 8 -11 30 6 13 15 22
19 19 5 -3 6 3 2 12 -5 14 -3 16 11 11 10 -4 15 -3 11 3 -8 13 49 102 60 93 4
-5 5 -2 1 4 -8 14 37 86 47 78 4 -3 5 -3 3 1 -3 5 20 73 47 137 11 26 12 26
15 7 2 -12 0 -29 -4 -38z m-1606 -406 c-2 -12 -67 -15 -388 -20 -371 -6 -583
-22 -520 -39 14 -4 220 -7 458 -7 281 0 432 -3 432 -10 0 -7 -263 -10 -772 -9
-425 1 -762 4 -748 6 34 6 50 23 21 23 -12 0 -20 4 -17 9 4 5 0 11 -6 14 -16
5 511 18 1085 26 266 4 432 2 438 -3 6 -6 9 -4 9 7 0 9 3 17 6 17 3 0 4 -6 2
-14z m2738 -4 l59 3 -3 -32 -4 -33 56 0 c56 0 56 0 56 31 0 28 2 30 33 28 17
-2 37 -7 43 -11 6 -4 33 -15 60 -24 42 -13 174 -16 988 -21 713 -4 937 -3 932
6 -5 7 -24 9 -54 6 -30 -4 -70 0 -112 10 -53 14 -130 18 -412 22 -212 3 -348
9 -348 15 0 6 124 8 333 5 450 -7 436 -6 412 -16 -14 -6 2 -11 58 -16 75 -7
101 -5 212 15 28 5 121 9 207 9 125 1 187 -4 300 -24 84 -15 181 -25 236 -25
71 0 93 -3 90 -12 -4 -10 -336 -13 -1609 -15 -882 -1 -1598 1 -1591 4 15 6 16
32 2 53 -8 11 -9 9 -5 -11 4 -18 2 -26 -7 -26 -9 0 -12 12 -9 40 2 23 6 34 11
27 5 -8 28 -11 66 -8z m794 6 c0 6 5 12 11 12 5 0 7 -4 4 -10 -3 -5 0 -10 9
-10 8 0 17 6 20 13 5 10 7 10 12 0 4 -10 54 -13 197 -13 104 0 187 -3 183 -7
-10 -10 -865 -5 -869 4 -3 12 417 20 425 8 5 -6 8 -5 8 3z m-1912 -19 c17 -6
32 -15 32 -20 0 -14 152 -10 172 5 10 7 14 17 10 22 -4 4 2 2 12 -6 11 -8 17
-10 13 -4 -4 7 24 11 86 12 51 1 125 5 165 8 l72 6 0 -28 c0 -16 5 -36 10 -44
8 -12 10 -10 10 8 0 26 17 62 29 62 4 0 8 -6 8 -12 0 -7 3 -23 7 -35 5 -16 3
-23 -6 -24 -7 -1 3 -5 22 -9 19 -4 -237 -7 -570 -7 -333 0 -587 3 -565 7 22 4
33 8 24 9 -22 1 -44 28 -24 28 8 0 12 -4 9 -8 -2 -4 5 -7 16 -6 22 1 29 42 8
49 -6 2 87 3 208 1 120 -2 234 -8 252 -14z m5007 -275 c-7 -3 -9 -55 -7 -145
5 -154 -7 -340 -18 -279 -5 29 -7 31 -12 13 -11 -40 1 -137 19 -150 13 -10 14
-13 2 -13 -11 0 -12 -2 0 -9 7 -5 9 -11 4 -14 -13 -8 -30 5 -36 28 -3 11 -4 3
-3 -17 2 -21 6 -41 9 -45 4 -3 -3 -11 -16 -18 -12 -6 -21 -19 -19 -28 2 -12
-2 -15 -14 -10 -17 6 -17 5 -1 -17 17 -25 23 -60 10 -60 -12 0 -52 74 -78 145
l-25 64 38 6 c20 3 47 8 58 10 24 5 28 -14 -39 220 -37 131 -40 151 -27 177
19 36 133 148 150 147 8 0 10 -3 5 -5z m-8999 -176 c-3 -13 -9 -97 -13 -188
-4 -91 -9 -157 -11 -147 -2 9 -9 17 -17 17 -15 0 -21 33 -36 175 -13 129 -10
147 21 156 50 14 63 11 56 -13z m-230 -27 c-3 -5 14 -7 39 -6 25 2 45 -1 45
-6 0 -5 4 -9 10 -9 5 0 7 7 4 15 -4 10 0 15 14 15 20 0 21 -5 18 -87 -2 -49
-5 -137 -6 -198 -2 -74 -5 -100 -10 -80 -6 24 -8 26 -9 8 0 -13 -5 -23 -11
-23 -5 0 -10 -7 -10 -16 0 -8 -4 -13 -9 -10 -15 10 -69 -24 -75 -47 -12 -47
-25 2 -29 108 l-3 110 -2 -112 c-1 -67 -6 -113 -12 -113 -5 0 -10 -12 -10 -27
0 -22 -3 -24 -12 -15 -10 10 -14 75 -16 237 l-4 225 25 0 c13 0 32 9 42 20 19
21 30 27 21 11z m3802 -107 c26 -17 30 -36 5 -27 -9 4 -14 2 -10 -3 3 -5 -3
-10 -13 -10 -10 0 -17 3 -15 6 2 3 -27 4 -63 3 -37 -2 -129 -4 -205 -5 -140
-3 -158 2 -121 33 37 30 376 33 422 3z m1506 6 c66 -33 43 -38 -171 -34 -114
1 -218 3 -231 3 -34 1 -22 23 19 39 49 17 343 11 383 -8z m-2434 -102 c0 -63
-8 -70 -76 -69 -92 3 -108 5 -116 16 -4 6 -8 -1 -8 -15 0 -14 -4 -20 -8 -14
-4 7 -44 11 -109 10 -93 -1 -103 1 -103 17 0 10 -4 15 -10 12 -5 -3 -10 -16
-10 -28 0 -16 -3 -18 -9 -9 -6 10 -31 13 -95 10 l-86 -3 -1 35 -1 35 -10 -37
-10 -38 -71 6 c-103 7 -115 11 -120 37 -3 17 -5 15 -6 -9 l-1 -31 -77 4 c-43
2 -88 5 -100 7 -16 2 -23 -2 -23 -13 0 -12 -2 -13 -9 -3 -5 9 -35 13 -91 14
-53 1 -87 6 -95 15 -11 11 -15 9 -20 -8 -4 -12 -10 -18 -14 -13 -3 5 -16 9
-28 10 -13 0 -54 1 -92 2 -64 2 -70 4 -74 25 -3 16 -5 13 -6 -11 -1 -28 -4
-32 -23 -28 -13 3 -54 8 -93 11 -38 3 -71 8 -73 10 -3 2 -8 19 -12 37 -8 33
-8 33 -9 -10 l-1 -44 -72 7 c-97 8 -118 14 -119 34 -1 16 -1 15 -15 -27 -3
-11 -8 -10 -26 2 -12 9 -30 16 -39 16 -20 0 -65 35 -79 61 -11 19 6 19 1015
19 l1025 0 0 -42z m505 30 c24 -11 25 -15 19 -57 -9 -61 -17 -73 -25 -36 l-7
30 -1 -29 c-1 -21 -4 -26 -13 -18 -17 14 -178 20 -179 7 -1 -5 -5 1 -9 15 -8
25 -8 24 -9 -5 -1 -17 -4 -25 -9 -18 -4 6 -39 13 -78 16 -39 2 -76 7 -83 11
-6 4 -11 27 -11 52 l0 44 190 0 c124 0 198 -4 215 -12z m905 -49 l0 -61 -27 6
c-16 2 -63 8 -105 11 -62 5 -78 4 -78 -7 -1 -8 -6 -6 -15 6 -12 15 -15 16 -15
5 0 -16 -6 -16 -162 -5 -30 2 -48 -1 -49 -8 -1 -6 -5 3 -9 19 -6 24 -8 26 -9
8 -2 -47 -41 -10 -41 40 0 41 29 46 278 46 l232 1 0 -61z m624 55 c18 -7 22
-79 6 -104 -9 -13 -10 -13 -10 0 0 9 -3 11 -8 5 -4 -5 -51 -10 -105 -10 -97 0
-97 0 -98 25 l-2 25 -4 -24 c-5 -23 -6 -24 -82 -18 -98 8 -111 13 -112 46 -1
24 -1 24 -10 -7 -9 -31 -12 -32 -54 -30 l-45 3 0 48 0 47 254 0 c140 0 261 -3
270 -6z m1428 -56 c-2 -33 -7 -56 -10 -51 -4 6 -36 10 -72 8 -36 -1 -71 2 -77
8 -9 6 -13 5 -13 -4 0 -11 -22 -14 -102 -14 -101 0 -103 0 -109 25 l-7 25 -1
-25 -1 -25 -87 6 c-49 3 -93 2 -100 -3 -7 -6 -14 0 -21 19 l-10 28 -1 -28 c-1
-22 -5 -27 -18 -23 -10 3 -54 6 -98 8 -60 2 -82 6 -87 18 -5 11 -7 10 -7 -7
-1 -15 -6 -20 -18 -17 -10 2 -51 5 -90 8 -62 3 -73 1 -74 -13 -1 -9 -5 11 -10
43 -7 45 -6 62 4 68 6 4 237 8 512 8 l500 0 -3 -62z m1948 58 c0 -10 -73 -81
-83 -82 -7 0 -29 -6 -51 -13 -32 -11 -40 -11 -47 0 -6 9 -9 10 -9 2 0 -8 -24
-11 -82 -9 -46 2 -91 -1 -100 -6 -15 -7 -18 -4 -19 19 0 26 -1 26 -9 7 -7 -19
-17 -21 -96 -23 -48 -1 -92 -3 -97 -4 -6 -1 -14 9 -18 23 -7 25 -7 25 -8 2 -1
-23 -2 -24 -101 -20 -81 2 -101 0 -105 -12 -5 -12 -8 -12 -14 -1 -6 10 -33 12
-105 9 l-96 -3 -2 25 -1 25 -4 -25 c-4 -25 -4 -25 -93 -20 -50 3 -90 3 -90 0
0 -3 -46 -5 -102 -5 -101 0 -103 0 -109 25 l-7 25 -1 -25 c-1 -25 -1 -25 -101
-25 l-100 0 -1 35 -1 35 -13 -40 c-7 -22 -13 -35 -14 -30 -1 6 -35 10 -81 10
l-80 0 0 38 c0 45 -18 49 -22 5 -3 -29 -7 -33 -35 -35 -33 -1 -33 -1 -33 48
l0 49 965 0 c531 0 965 -2 965 -4z m788 -386 c12 -13 13 -12 8 10 l-5 25 25
-28 c39 -45 33 -61 -36 -84 l-35 -12 35 5 c31 5 38 1 59 -27 20 -27 21 -31 6
-25 -10 3 -33 1 -52 -6 -25 -9 -33 -17 -30 -30 3 -10 2 -18 -3 -18 -11 0 -40
47 -40 65 0 9 -4 13 -10 10 -5 -3 -10 0 -10 8 0 16 28 30 90 47 23 6 40 14 37
17 -10 9 -108 -28 -129 -49 -24 -24 -37 -15 -20 12 10 17 8 26 -14 60 -15 22
-31 37 -37 33 -6 -3 -7 -1 -3 6 5 8 12 9 19 2 8 -6 19 -5 31 5 17 12 18 14 3
14 -9 0 -17 -5 -17 -12 0 -9 -3 -9 -11 -1 -6 6 -18 9 -25 6 -8 -3 -14 0 -14 7
0 7 8 10 20 7 11 -3 22 -1 25 3 7 12 116 -29 133 -50z m-518 -181 c0 -4 -6
-10 -12 -12 -7 -3 -1 -6 15 -6 23 -1 27 -5 27 -31 0 -27 3 -30 34 -30 54 0 96
-11 96 -26 0 -11 -19 -14 -80 -14 l-80 0 -1 -102 c-1 -107 0 -140 7 -147 2 -2
39 -6 82 -9 62 -3 79 -1 80 9 1 8 3 39 6 69 3 30 5 73 6 95 l0 41 98 -1 c91
-1 103 -4 175 -39 43 -20 82 -34 89 -30 6 4 8 3 5 -3 -4 -6 54 -41 132 -82
143 -73 157 -79 145 -60 -4 8 0 8 15 0 11 -7 21 -15 21 -20 0 -4 26 -18 58
-31 67 -28 140 -70 146 -85 2 -7 -316 -10 -979 -9 l-983 1 -30 24 c-16 13
-109 93 -206 177 l-177 152 500 0 500 0 12 21 c11 22 14 132 4 149 -4 6 55 9
145 8 82 -1 150 -5 150 -9z m-7232 -121 c21 -6 32 -16 32 -29 0 -18 15 -19
504 -21 l504 -3 -70 -55 c-99 -77 -266 -216 -308 -255 l-35 -33 -360 -6 c-198
-3 -644 -3 -992 1 -521 5 -630 9 -626 20 3 7 12 13 20 13 13 0 533 261 599
301 28 17 56 19 253 22 160 1 221 -1 221 -9 0 -11 22 -24 40 -24 5 0 11 13 15
29 5 24 11 29 33 28 15 -1 29 -5 32 -9 5 -6 65 -12 90 -7 8 1 -7 5 -34 8 -47
6 -49 7 -33 23 19 19 66 21 115 6z m742 -551 c0 8 50 11 176 12 l177 1 -7 -43
c-8 -50 -32 -90 -51 -83 -7 2 -16 2 -19 -2 -4 -3 -19 -8 -34 -10 -15 -1 -51
-9 -80 -17 -47 -12 -56 -11 -92 6 -21 10 -46 19 -55 19 -8 0 -15 4 -15 9 0 6
-12 6 -32 0 -40 -11 -41 -11 -33 0 3 5 0 13 -6 17 -8 4 -9 3 -5 -4 10 -16 -32
-31 -75 -28 -19 2 -41 -3 -50 -10 -8 -8 -46 -25 -83 -38 -63 -23 -235 -114
-298 -158 l-28 -19 -10 26 c-25 66 -48 262 -36 310 l7 26 217 -3 c170 -2 222
-6 239 -18 18 -11 25 -12 35 -2 14 14 74 16 83 2 3 -5 15 0 26 11 20 20 21 20
34 2 8 -10 15 -13 15 -6z m5411 12 c67 0 123 2 127 5 11 11 21 6 28 -16 5 -17
8 -19 15 -6 6 10 19 13 41 11 18 -3 49 -4 68 -4 271 3 336 6 341 14 4 5 12 -1
19 -14 14 -26 9 -162 -11 -274 l-11 -64 -59 44 c-86 63 -262 147 -346 166 -40
8 -73 13 -73 9 0 -3 -19 -7 -42 -9 -23 -1 -46 -9 -53 -17 -13 -19 -67 -26 -77
-10 -6 8 -8 7 -8 -2 0 -10 -4 -10 -22 0 -13 7 -25 16 -28 19 -3 3 -36 9 -73
11 -57 5 -71 10 -85 29 -9 13 -18 28 -19 34 -21 82 -15 88 80 80 37 -4 122 -6
188 -6z m-223 -483 c6 -7 -22 -125 -29 -120 -11 7 -22 -34 -15 -60 6 -24 -18
-165 -33 -194 -8 -16 -20 -70 -26 -122 -2 -14 -4 -27 -5 -30 -4 -9 -7 -35 -8
-72 l-2 -38 -86 0 c-84 0 -85 0 -78 23 53 172 130 396 141 408 7 9 11 24 7 33
-3 9 -1 16 5 16 7 0 11 6 10 13 -1 6 -1 21 0 32 1 17 3 18 11 5 7 -11 8 -5 3
19 -4 23 -3 32 4 28 6 -4 10 -1 10 6 -1 6 3 29 7 49 l8 37 36 -15 c20 -8 38
-16 40 -18z m-4841 4 c-3 -11 -2 -18 2 -16 9 6 53 -113 46 -124 -3 -5 -1 -10
3 -12 8 -3 92 -239 92 -258 0 -12 -139 -14 -141 -2 -6 32 -13 67 -44 212 -19
91 -33 171 -30 177 3 10 52 37 74 42 2 1 1 -8 -2 -19z m-902 -34 c52 -8 54
-16 30 -106 -8 -30 -20 -82 -26 -115 -6 -33 -20 -79 -30 -103 -36 -79 -44 -52
-47 162 -2 174 -1 196 12 183 8 -8 35 -18 61 -21z m5921 -46 c-17 -107 -26
-231 -20 -277 l6 -51 -63 -6 c-35 -4 -73 -5 -85 -4 -23 2 -25 -16 20 238 14
79 26 147 26 150 0 3 27 2 61 -4 l61 -10 -6 -36z m668 -7 c8 -76 -3 -255 -14
-248 -5 3 -11 24 -15 48 -4 23 -18 88 -31 144 -13 57 -24 105 -24 107 0 4 19
8 66 15 7 0 14 -26 18 -66z m-5829 25 c10 -50 65 -341 65 -349 0 -10 -83 -12
-116 -3 -20 5 -22 15 -29 100 -4 52 -11 92 -15 89 -6 -4 -23 104 -25 160 0 6
16 13 35 16 68 12 79 10 85 -13z m5695 -35 c7 -32 16 -71 21 -87 5 -16 7 -31
5 -33 -2 -3 -46 33 -97 78 -103 92 -103 97 3 98 l57 1 11 -57z m-315 10 c6
-34 72 -292 82 -319 4 -12 -194 -19 -250 -9 -32 6 -34 9 -28 33 4 15 6 50 4
77 -2 28 1 96 8 151 l12 101 83 2 83 2 6 -38z m-5535 -55 c7 -46 16 -117 21
-158 4 -41 9 -84 11 -95 3 -19 -3 -20 -140 -20 -122 0 -141 2 -136 15 13 33
74 296 74 317 0 22 3 23 78 23 l79 0 13 -82z m501 -428 c23 -63 41 -123 41
-132 0 -10 4 -18 10 -18 6 0 8 -9 5 -20 -3 -11 -2 -18 3 -15 4 2 13 -15 20
-39 10 -38 9 -48 -11 -92 -23 -50 -98 -129 -132 -138 -10 -2 -17 -2 -14 1 3 2
1 18 -5 34 -6 17 -34 148 -63 292 l-52 262 71 5 c57 4 72 2 78 -10 4 -8 26
-67 49 -130z m-256 50 c9 -47 18 -93 21 -102 5 -17 -14 -18 -291 -18 -279 0
-297 1 -290 18 6 14 46 133 60 178 2 8 73 11 243 10 l240 -1 17 -85z m5061 81
c-3 -5 1 -11 9 -15 8 -3 14 0 12 7 -1 9 37 13 148 15 l151 2 38 -114 c21 -64
34 -121 30 -127 -5 -8 -3 -9 6 -4 10 6 12 4 7 -8 -3 -9 -2 -17 2 -19 4 -2 26
-58 49 -125 l41 -123 -233 0 -233 0 5 -25 c2 -14 9 -25 15 -25 6 0 7 -3 4 -7
-4 -3 3 -22 15 -41 12 -20 21 -47 20 -59 -1 -14 2 -21 8 -18 6 3 7 -1 3 -10
-4 -12 -8 -13 -13 -5 -5 8 -9 6 -14 -7 -7 -17 -8 -17 -17 0 -6 9 -7 22 -4 27
3 6 -1 13 -10 16 -10 4 -15 14 -12 25 3 11 2 17 -2 15 -4 -3 -24 32 -45 77
-38 81 -39 82 -49 53 -7 -20 -6 -45 2 -78 14 -63 15 -89 1 -68 -8 12 -10 12
-16 -3 -7 -18 -44 -24 -44 -7 0 18 -18 10 -23 -10 -3 -11 -14 -20 -24 -20 -20
0 -63 34 -63 49 0 5 -7 11 -15 15 -12 4 -14 0 -8 -22 6 -24 5 -26 -10 -13 -10
7 -17 21 -17 30 0 14 -2 14 -11 1 -9 -12 -10 -11 -4 5 4 11 9 34 11 50 3 17
19 102 37 190 l32 160 30 6 30 7 -27 1 c-31 1 -31 1 -18 56 6 22 13 58 15 79
9 78 7 76 106 76 51 0 88 -4 85 -9z m-4999 -376 c18 -88 35 -173 37 -190 3
-16 8 -39 11 -50 3 -11 0 -29 -8 -39 -14 -19 -16 -19 -40 -3 -15 10 -46 17
-73 17 -33 0 -51 5 -60 18 -13 16 -13 16 -14 0 0 -31 -20 -19 -20 12 0 17 5
30 10 30 11 0 14 59 4 84 -7 18 -27 -11 -64 -93 -12 -24 -28 -51 -38 -58 -9
-8 -11 -11 -3 -7 7 4 3 -7 -10 -25 -21 -29 -38 -43 -24 -21 4 6 9 27 11 48 3
27 1 33 -6 22 -17 -26 -11 -5 15 54 14 31 25 59 25 61 0 3 -98 6 -217 6 -120
1 -208 4 -195 6 19 4 21 7 11 19 -6 7 -16 11 -23 7 -6 -3 -6 0 2 8 14 16 16
43 2 34 -5 -3 -10 -1 -10 4 0 6 5 11 11 11 8 0 9 14 5 43 -4 25 -2 56 5 73 6
16 13 40 15 53 3 14 7 28 10 33 3 5 139 7 302 6 l296 -3 33 -160z m4698 135
c0 -14 -7 -65 -17 -115 -10 -49 -22 -116 -27 -148 -6 -32 -19 -68 -29 -82
l-19 -24 -32 37 c-18 20 -48 69 -68 108 l-34 71 26 74 c15 41 29 82 32 92 5
15 16 17 87 15 79 -3 81 -4 81 -28z m-5121 -537 c-4 -21 -8 -39 -9 -41 -1 -1
-55 -5 -120 -9 -89 -5 -116 -3 -111 5 4 7 22 12 39 12 18 1 43 7 57 15 l25 13
-28 11 c-16 6 -37 11 -47 11 -10 0 -22 5 -25 10 -4 6 35 10 110 10 l116 0 -7
-37z m5886 27 c-8 -5 -27 -10 -42 -10 -19 0 -28 -5 -28 -16 0 -8 5 -12 10 -9
6 3 10 1 10 -5 0 -6 -15 -14 -32 -18 -27 -6 -20 -8 42 -13 50 -4 21 -6 -90 -6
-96 0 -148 3 -125 7 38 7 38 7 8 9 -17 0 -35 6 -39 13 -4 7 -3 8 5 4 6 -4 18
0 27 9 13 12 14 19 4 30 -11 13 5 15 126 15 94 0 134 -3 124 -10z"/>
<path d="M5016 7799 c-30 -24 -33 -52 -12 -119 35 -112 74 -148 113 -104 30
33 59 31 78 -6 9 -18 23 -30 35 -30 48 0 121 168 102 235 -11 38 -29 43 -173
44 -103 1 -119 -1 -143 -20z"/>
<path d="M4750 7671 c-8 -5 -36 -12 -61 -15 -57 -8 -73 -25 -89 -95 -26 -109
-11 -136 107 -191 65 -31 110 -33 140 -8 11 9 11 14 -2 28 -17 19 -17 50 0 62
6 4 21 8 36 8 30 0 49 17 49 45 0 82 -70 175 -131 175 -19 0 -41 -4 -49 -9z"/>
<path d="M5494 7669 c-23 -7 -38 -22 -58 -60 -14 -28 -26 -57 -26 -64 0 -7 -5
-15 -11 -17 -7 -2 -7 -12 1 -32 8 -21 15 -27 30 -23 12 3 29 -4 44 -18 14 -13
27 -20 30 -17 3 3 6 -2 6 -11 0 -9 -4 -18 -9 -21 -5 -3 -7 -15 -4 -26 3 -11 9
-17 14 -14 5 3 9 1 9 -4 0 -14 54 -26 58 -13 2 6 14 11 27 11 46 0 136 66 154
112 12 32 -14 144 -41 173 -4 5 -43 12 -86 16 -42 4 -84 9 -92 12 -8 3 -29 1
-46 -4z"/>
<path d="M5720 7271 c-72 -21 -100 -41 -100 -69 0 -13 -11 -29 -27 -40 -42
-26 -40 -47 8 -77 91 -58 239 -64 259 -10 5 12 14 26 19 30 20 11 13 93 -9
115 -11 11 -20 24 -20 29 0 12 -46 41 -62 40 -7 -1 -38 -9 -68 -18z"/>
<path d="M4537 7273 c-18 -3 -35 -15 -45 -34 -10 -16 -20 -29 -24 -29 -5 0 -8
-22 -8 -50 0 -29 5 -50 11 -50 5 0 7 -4 4 -10 -9 -15 13 -48 43 -64 54 -28
218 18 264 73 12 14 14 21 5 21 -8 0 -7 4 3 10 12 8 12 10 -5 10 -24 1 -59 26
-61 43 0 7 -2 18 -2 24 -4 32 -120 67 -185 56z"/>
<path d="M5523 6963 c4 -3 -1 -15 -10 -26 -10 -11 -13 -17 -6 -14 20 12 8 -44
-15 -70 -17 -19 -25 -21 -45 -14 -18 7 -27 5 -38 -7 -28 -33 13 -171 58 -191
12 -6 23 -15 23 -20 0 -10 35 -8 114 4 23 3 44 1 52 -6 10 -8 14 -8 14 -1 0 6
6 9 13 7 6 -3 22 3 34 13 19 15 22 31 28 117 6 89 5 102 -11 121 -24 26 -72
50 -148 75 -64 21 -73 22 -63 12z"/>
<path d="M4706 6929 c-32 -11 -65 -27 -73 -35 -8 -7 -20 -14 -27 -14 -20 0
-27 -53 -20 -141 7 -75 8 -79 38 -92 48 -23 157 -38 193 -28 37 11 71 42 65
61 -3 7 0 10 6 6 7 -4 14 4 17 21 3 15 10 43 15 62 10 37 0 65 -22 67 -7 0
-23 2 -35 2 -21 2 -49 55 -38 72 6 9 -33 40 -50 40 -5 -1 -36 -10 -69 -21z"/>
<path d="M5070 6735 c-7 -8 -15 -13 -19 -11 -5 4 -22 -27 -52 -99 -9 -22 -13
-55 -11 -97 3 -44 43 -58 171 -59 61 0 115 2 120 5 5 3 12 0 14 -6 4 -10 6
-10 6 0 1 6 7 12 15 12 27 0 36 114 11 146 -8 10 -15 27 -15 37 0 9 -4 17 -10
17 -5 0 -10 6 -10 13 0 17 -32 47 -50 47 -8 0 -27 -12 -42 -27 l-28 -27 -33
32 c-37 36 -49 39 -67 17z"/>
<path d="M1007 6059 c3 -10 10 -16 16 -12 6 3 7 1 3 -6 -4 -7 2 -19 14 -29
l21 -17 -21 -13 c-17 -10 -21 -10 -26 3 -4 8 -15 15 -26 15 -11 0 -18 -5 -15
-12 2 -7 10 -12 16 -10 6 1 11 -2 11 -8 0 -5 -4 -10 -10 -10 -16 0 -12 -50 5
-56 8 -4 12 -10 9 -15 -3 -5 2 -6 10 -3 10 4 14 0 13 -15 -1 -12 -5 -21 -9
-21 -4 0 -2 -13 3 -30 6 -16 17 -30 24 -30 15 0 23 53 24 170 l1 85 -34 17
c-32 16 -34 16 -29 -3z"/>
<path d="M8721 3352 c-11 -4 -7 -60 11 -160 13 -77 31 -92 109 -92 52 0 57 2
68 28 6 15 13 50 16 77 4 28 11 67 16 88 14 55 2 62 -113 62 -54 0 -102 -1
-107 -3z"/>
<path d="M0 7337 c0 -269 1 -288 18 -285 12 3 17 13 17 40 0 20 3 34 6 32 22
-13 20 342 -1 417 l-8 27 72 -33 c39 -18 115 -51 168 -74 96 -42 96 -43 93
-74 -3 -18 -10 -84 -16 -147 -7 -63 -13 -120 -13 -126 -4 -30 -66 -61 -66 -33
0 5 -4 8 -9 5 -5 -4 -4 7 2 24 7 20 14 25 19 17 11 -18 10 2 -4 48 -15 51 -15
52 -17 70 -1 21 -21 19 -22 -2 -1 -10 -7 6 -14 35 -7 30 -16 56 -19 59 -10 10
-38 -7 -43 -27 -3 -11 -10 -20 -17 -20 -6 -1 0 -7 13 -14 19 -10 20 -14 8 -19
-9 -3 -18 -1 -20 6 -3 7 -3 -4 0 -24 3 -25 0 -40 -11 -52 -9 -8 -16 -27 -16
-40 0 -20 4 -24 25 -22 24 3 24 2 10 -25 -8 -16 -15 -37 -15 -46 0 -10 -10
-28 -22 -41 -19 -20 -19 -23 -4 -17 17 6 17 2 12 -62 -4 -49 -3 -59 3 -35 5
18 15 45 23 59 l13 25 6 -29 7 -29 1 27 c1 21 5 25 21 21 24 -6 24 -7 6 -57
-16 -46 -42 -69 -73 -63 -12 2 -20 1 -18 -3 3 -4 -5 -10 -16 -13 -19 -5 -21
-3 -16 26 3 18 8 48 11 67 l6 35 -20 -42 c-15 -32 -48 -200 -50 -254 0 -16 65
-3 72 14 10 24 28 21 29 -5 1 -22 1 -22 9 2 8 24 8 24 9 3 1 -13 6 -23 11 -23
18 0 10 -18 -10 -23 -12 -3 -24 1 -30 11 -6 10 -10 12 -10 4 0 -7 9 -20 20
-29 27 -23 25 -33 -5 -33 -21 0 -25 5 -25 30 0 27 -2 29 -19 21 -10 -6 -21 -7
-25 -4 -3 3 -6 -2 -7 -13 0 -10 -3 -13 -6 -6 -8 19 -23 14 -23 -8 0 -11 -4
-20 -10 -20 -6 0 -10 -81 -10 -222 0 -201 2 -225 19 -247 12 -16 21 -20 25
-12 12 19 36 12 38 -11 0 -13 4 0 8 27 l7 50 1 -44 c3 -76 70 -153 73 -83 2
21 3 18 9 -13 7 -40 7 -40 9 15 3 66 19 42 20 -30 1 -33 4 -41 11 -30 8 12 10
11 10 -6 0 -12 7 -24 15 -28 9 -3 15 -18 15 -36 0 -21 -4 -29 -12 -24 -8 5 -9
2 -5 -9 4 -11 1 -17 -8 -17 -19 0 -19 -24 0 -40 9 -7 13 -21 10 -31 -3 -9 -1
-20 5 -24 6 -3 8 -10 5 -15 -3 -5 -1 -11 5 -15 5 -3 10 -1 10 4 0 6 4 11 9 11
5 0 8 -20 7 -45 -2 -62 11 -57 19 8 4 28 9 56 12 60 7 11 32 -24 33 -45 0 -10
7 -15 17 -14 12 2 23 -10 35 -36 9 -21 21 -38 27 -38 5 0 12 -10 15 -22 7 -34
-1 61 -9 102 -4 19 -13 70 -22 113 -8 42 -21 90 -29 105 -15 28 -19 83 -6 81
30 -5 42 3 43 29 0 15 4 36 9 47 6 14 9 3 10 -40 2 -59 2 -59 11 -20 4 22 6
83 4 135 -2 52 -5 181 -6 287 -1 106 -6 190 -10 187 -5 -3 -8 25 -7 63 l1 68
7 -50 c4 -27 8 112 8 310 l2 360 -39 22 c-21 12 -83 40 -137 62 -132 52 -257
111 -266 125 -4 6 -8 -119 -8 -277z"/>
<path d="M9550 5470 c-14 -34 -30 -40 -30 -11 0 24 -25 34 -40 15 -7 -8 -18
-14 -24 -14 -6 0 -19 -9 -29 -20 -16 -19 -16 -20 1 -21 14 0 14 -2 -3 -9 -28
-12 -109 -12 -141 0 -21 9 -29 7 -39 -7 -8 -10 -11 -20 -9 -23 3 -2 9 2 13 9
7 10 12 8 24 -9 12 -18 25 -21 71 -21 32 0 54 -4 51 -10 -3 -5 1 -6 10 -3 13
5 15 2 9 -22 -8 -35 -14 -43 -14 -21 0 19 -22 22 -51 7 -23 -13 -25 -30 -4
-30 8 0 15 -5 15 -10 0 -12 61 17 72 34 4 6 6 16 3 23 -2 7 4 20 13 29 16 16
17 16 20 1 2 -10 8 -14 14 -11 7 4 8 2 4 -5 -4 -6 -11 -9 -16 -6 -11 7 -23
-32 -14 -46 4 -7 3 -9 -3 -6 -5 3 -10 0 -10 -8 0 -8 4 -15 8 -15 11 0 39 30
39 42 0 6 7 5 17 -3 13 -11 15 -11 9 -1 -5 8 -2 30 7 50 9 21 18 49 21 65 4
15 11 27 17 27 6 0 6 -6 -1 -19 -15 -29 -12 -39 5 -17 16 22 20 82 6 90 -5 3
-14 -8 -21 -24z"/>
<path d="M1 5322 l-1 -154 153 7 c83 4 170 11 192 16 22 5 56 9 75 10 19 1 27
3 18 6 -10 2 -15 10 -11 19 3 7 -2 17 -11 20 -9 3 -14 10 -11 14 11 18 -40 56
-74 56 l-34 0 24 -16 c12 -8 39 -30 58 -48 l35 -33 -29 4 c-17 2 -34 1 -40 -3
-5 -4 -68 -9 -139 -11 l-130 -4 -12 65 c-7 36 -24 97 -38 135 l-25 70 0 -153z"/>
<path d="M348 4733 c6 -2 12 -14 12 -26 l0 -21 -20 22 c-33 35 -74 12 -91 -51
-12 -44 -51 -110 -86 -145 -17 -17 -23 -34 -23 -67 0 -24 -4 -55 -10 -69 -6
-17 -6 -26 0 -26 6 0 10 -22 10 -50 0 -36 -4 -50 -14 -50 -9 0 -13 -10 -12
-25 1 -22 5 -24 31 -20 17 3 59 9 95 15 36 6 100 18 143 27 l77 16 0 42 c0 28
7 48 21 63 24 26 18 66 -9 58 -15 -5 -17 3 -15 73 2 74 0 79 -23 91 -19 11
-24 21 -24 52 0 21 -4 38 -10 38 -5 0 -10 14 -10 30 0 26 -3 30 -27 29 -16 0
-22 -3 -15 -6z"/>
<path d="M3375 4650 c-132 -3 -233 -7 -225 -8 12 -2 13 -4 1 -11 -32 -20 26
-26 266 -26 l252 0 -2 27 c-2 23 -6 27 -27 25 -14 -1 -133 -4 -265 -7z"/>
<path d="M10185 4395 c-6 -39 -11 -45 -41 -55 -31 -11 -47 -30 -24 -30 6 0 10
-5 10 -11 0 -6 -7 -9 -15 -5 -11 4 -15 -2 -15 -27 0 -52 19 -69 84 -75 53 -4
56 -3 56 18 0 13 -7 24 -18 27 -10 2 -24 14 -32 26 -7 12 -20 33 -29 47 -9 13
-11 21 -4 17 6 -4 14 -3 18 3 3 5 15 10 26 10 16 0 19 7 19 50 0 37 -4 50 -14
50 -10 0 -17 -16 -21 -45z"/>
<path d="M9920 4200 c0 -11 8 -23 18 -26 9 -3 25 -10 34 -15 10 -5 29 -9 42
-9 14 0 28 -5 31 -10 4 -6 15 -8 25 -5 10 3 45 -2 77 -11 82 -24 93 -24 93 0
0 19 -17 25 -153 59 -83 21 -155 37 -159 37 -5 0 -8 -9 -8 -20z"/>
<path d="M132 2324 c-12 -8 -22 -12 -22 -8 0 3 -6 1 -14 -5 -10 -9 -16 -9 -21
-1 -11 18 -34 -7 -28 -30 4 -16 0 -20 -21 -20 l-26 0 0 -246 c0 -229 1 -245
18 -240 9 2 36 10 58 17 41 11 42 12 57 83 9 39 19 94 22 121 3 28 8 73 11
100 10 91 10 105 0 109 -7 3 -7 5 -1 5 14 1 6 111 -8 111 -7 0 -5 5 3 10 8 5
10 10 5 10 -6 0 -21 -7 -33 -16z"/>
<path d="M5659 2249 c-10 -6 -10 -9 -1 -9 6 0 12 -6 12 -14 0 -16 -54 -41 -69
-32 -5 4 -27 -3 -48 -14 -48 -26 -53 -25 -53 6 0 14 -4 23 -10 19 -5 -3 -10
-15 -10 -26 0 -10 -7 -19 -15 -19 -8 0 -12 6 -9 14 3 8 1 23 -5 33 -6 10 -11
13 -11 7 0 -12 -100 -14 -100 -1 0 4 6 7 13 8 6 0 -14 7 -46 16 -63 16 -107
11 -107 -12 0 -14 -35 -21 -85 -16 -11 1 -30 -3 -41 -10 -16 -8 -27 -8 -45 2
-20 11 -21 14 -6 17 9 2 17 7 17 12 0 5 -18 1 -39 -8 -34 -14 -37 -18 -20 -24
27 -10 24 -17 -6 -14 -14 2 -31 11 -39 21 -10 14 -25 17 -72 16 -32 0 -60 -6
-62 -11 -2 -6 -18 -10 -35 -10 -35 0 -143 -28 -114 -29 22 -1 23 -41 1 -41 -9
0 -14 6 -11 13 3 9 -6 13 -29 14 -33 1 -47 -11 -22 -19 7 -3 9 -12 4 -24 -7
-19 -8 -19 -22 0 -8 11 -14 14 -14 8 0 -7 -7 -12 -16 -12 -10 0 -14 -6 -10
-15 6 -16 -28 -22 -38 -6 -3 4 -27 3 -53 -4 -32 -9 -52 -9 -60 -3 -9 7 -13 7
-13 -1 0 -24 -19 -10 -22 17 -3 25 -6 27 -46 27 -27 0 -48 6 -55 15 -7 9 -19
15 -27 14 -8 0 -10 1 -2 3 16 6 15 9 -4 38 -8 13 -22 21 -29 19 -7 -3 -15 3
-18 13 -4 14 -5 15 -6 2 -1 -21 -30 -29 -103 -29 -41 0 -56 -4 -54 -12 1 -7 1
-10 -1 -5 -3 4 -41 8 -86 9 -71 1 -76 2 -37 8 l45 7 -52 1 c-29 1 -53 -2 -53
-8 0 -11 -103 -60 -125 -60 -8 0 -15 -4 -15 -10 0 -5 6 -10 14 -10 8 0 18 -5
22 -12 12 -19 -26 -37 -70 -34 -23 2 -28 1 -13 -1 35 -5 30 -27 -6 -31 -35 -4
-35 -19 1 -26 15 -2 -1 -3 -35 -2 -34 1 -60 -1 -57 -6 3 -4 -2 -8 -10 -8 -9 0
-16 9 -16 20 0 11 -5 20 -11 20 -7 0 -9 -10 -7 -24 4 -17 1 -23 -9 -19 -7 3
-13 14 -13 24 0 10 -4 19 -10 19 -19 0 -10 -37 15 -60 22 -21 25 -21 31 -6 5
14 9 15 15 4 12 -18 11 -30 -1 -23 -7 4 -8 -3 -4 -20 l7 -27 -57 7 c-48 6 -56
5 -56 -9 0 -17 -25 -22 -35 -6 -3 5 -12 7 -20 3 -8 -3 -15 0 -15 5 0 6 12 12
28 14 24 4 25 5 8 13 -14 6 -24 3 -38 -14 -12 -16 -25 -22 -39 -18 -15 4 -19
2 -15 -10 3 -8 6 -17 6 -19 0 -9 29 -3 32 7 3 8 11 8 28 -2 37 -21 49 -41 50
-79 0 -20 5 -41 12 -48 9 -9 5 -12 -20 -12 -18 0 -32 5 -32 10 0 6 5 10 10 10
6 0 10 18 10 40 0 40 -13 53 -24 25 -4 -11 -18 -15 -51 -13 -25 0 -51 -4 -57
-10 -9 -9 -7 -12 10 -12 26 0 29 -17 5 -23 -17 -4 -17 -5 0 -6 10 0 27 4 38 9
13 7 25 8 37 1 9 -6 11 -11 5 -11 -25 0 -13 -16 22 -29 19 -7 35 -17 35 -22 0
-5 9 -9 20 -9 11 0 20 5 20 10 0 18 29 11 40 -9 9 -17 6 -20 -18 -24 -19 -3
-14 -4 16 -6 23 0 42 2 42 7 0 4 18 7 39 7 22 0 37 -3 35 -6 -2 -4 4 -5 13 -3
10 3 36 1 58 -5 29 -6 -43 -10 -255 -12 -267 -3 -280 -4 -130 -9 l165 -5 -130
-6 c-126 -5 -125 -5 61 -7 177 -2 192 -3 209 -22 10 -11 23 -20 29 -20 6 0 4
5 -4 10 -11 7 -7 10 18 10 20 0 31 -4 27 -10 -6 -9 1 -12 23 -9 4 1 6 5 4 10
-3 13 3 11 43 -12 31 -19 34 -23 19 -33 -14 -11 -14 -13 0 -25 14 -12 16 -11
17 5 0 17 2 17 16 -3 8 -13 21 -23 29 -23 7 0 20 -8 30 -17 14 -14 34 -18 91
-18 67 0 91 -7 61 -18 -7 -2 -10 -8 -5 -12 4 -5 13 -2 20 7 17 22 93 30 108
12 15 -18 59 -14 59 6 1 12 4 10 16 -5 15 -19 15 -18 10 20 -5 29 -4 35 3 20
8 -17 10 -15 10 15 1 22 4 30 10 22 4 -7 2 -35 -5 -62 -33 -128 -105 -452
-102 -456 3 -2 12 31 22 74 56 241 79 331 93 365 16 35 36 47 47 28 10 -15 56
-20 56 -5 0 7 16 16 35 20 19 3 35 10 35 15 0 5 -13 6 -30 3 -19 -4 -30 -2
-30 5 0 7 21 11 56 11 44 0 55 3 51 14 -8 19 35 26 59 9 21 -15 38 -17 29 -3
-4 7 3 7 20 0 36 -14 45 -13 45 5 0 8 9 15 20 15 14 0 18 -5 13 -17 -6 -16 -5
-16 10 -5 11 9 57 15 141 17 69 2 135 9 147 16 28 15 174 3 204 -17 18 -12 30
-12 85 0 40 9 53 15 36 15 -36 1 -32 6 12 14 29 6 33 5 27 -12 -8 -25 17 -33
72 -25 33 5 43 3 43 -7 0 -9 3 -10 8 -4 4 6 26 11 50 12 34 1 42 -2 40 -15 -3
-15 2 -17 30 -10 9 2 181 -12 207 -18 11 -2 14 -1 7 2 -6 3 -9 10 -6 16 4 6
17 -2 30 -18 13 -15 27 -24 32 -19 4 4 1 10 -5 12 -7 3 -13 9 -13 15 0 6 18 7
50 3 31 -4 50 -3 50 3 0 12 -24 22 -53 22 -13 0 -18 3 -11 10 5 5 45 10 89 10
120 1 115 2 115 -31 0 -18 5 -29 13 -28 21 4 72 -14 82 -28 9 -11 19 -12 45
-5 l35 10 -32 7 c-18 4 -33 12 -33 17 0 5 -12 8 -27 5 -16 -2 -22 -2 -15 0 6
3 12 9 12 14 0 6 10 9 23 8 12 -2 28 0 35 5 18 11 65 -2 56 -15 -3 -6 -19 -8
-35 -5 -16 3 -29 1 -29 -4 0 -6 12 -10 28 -10 38 0 60 -15 36 -24 -15 -6 -16
-9 -4 -16 9 -6 17 -5 22 3 5 8 8 4 8 -10 0 -13 5 -23 10 -23 6 0 9 15 7 35 -3
25 0 35 9 35 8 0 14 -5 14 -11 0 -8 5 -8 15 1 9 8 28 10 49 6 25 -5 37 -3 43
7 11 19 80 32 85 16 2 -7 12 -9 26 -5 50 16 -21 52 -74 37 -27 -7 -34 -7 -34
5 0 9 11 14 33 15 17 0 53 1 80 2 26 1 47 -2 47 -8 0 -5 4 -5 8 1 12 21 93 36
156 30 55 -5 57 -4 17 4 -24 5 -45 11 -47 12 -1 2 57 3 129 3 219 0 467 10
467 18 0 4 -212 7 -472 7 -259 0 -469 2 -466 5 3 3 124 6 269 7 145 1 244 4
219 8 l-45 6 42 8 c31 6 43 14 46 30 3 16 5 14 6 -7 1 -33 24 -32 29 1 4 29
32 28 33 0 1 -17 3 -18 6 -6 2 9 13 20 24 23 11 4 16 11 13 17 -5 7 4 9 23 6
27 -4 29 -2 25 21 -3 15 -7 20 -9 14 -7 -21 -41 -15 -54 8 -6 12 -14 17 -18
12 -8 -14 -73 -4 -68 10 2 7 29 11 66 10 37 0 57 3 49 8 -7 5 -20 9 -29 9 -16
0 -31 21 -33 45 -1 6 -13 11 -28 13 -32 4 -37 22 -8 29 25 7 26 31 3 49 -15
11 -15 13 -3 13 8 0 24 -6 34 -14 14 -11 23 -12 33 -4 17 15 17 29 -2 29 -8 0
-15 7 -15 15 0 12 -3 13 -19 3 -15 -9 -23 -9 -35 1 -8 7 -20 10 -25 6 -6 -3
-29 3 -53 15 -23 11 -58 21 -77 21 l-36 1 30 8 30 7 -27 7 c-15 5 -35 3 -48
-4 -18 -10 -25 -8 -41 9 -14 15 -32 21 -59 21 -46 0 -54 -16 -12 -24 15 -2 -4
-3 -43 -1 -47 2 -64 0 -50 -6 16 -8 15 -8 -5 -3 -14 3 -40 8 -57 11 -18 3 -33
11 -33 18 0 15 -113 29 -118 15 -2 -6 -22 -10 -43 -10 -24 0 -38 4 -34 10 4 6
-6 10 -21 10 -26 0 -26 -1 -10 -13 17 -12 17 -14 2 -20 -21 -8 -21 -27 1 -27
11 0 13 -3 7 -9 -17 -17 -64 0 -70 25 -6 22 -11 24 -68 24 -35 0 -67 -5 -74
-12 -9 -9 -15 -9 -24 0 -7 7 -20 12 -30 12 -10 0 -18 3 -18 8 0 4 -9 13 -21
20 -16 10 -24 10 -35 1 -13 -10 -18 -6 -15 14 0 4 -9 7 -22 7 -41 0 -127 30
-127 45 0 7 4 15 9 17 5 2 3 8 -4 15 -7 7 -17 8 -26 2z"/>
<path d="M496 2183 c-9 -29 -26 -34 -134 -40 -72 -5 -96 -3 -102 7 -4 7 -8
-43 -8 -111 1 -70 4 -115 9 -104 6 16 8 17 8 3 1 -9 -5 -23 -12 -30 -15 -14
-12 -35 9 -58 7 -8 14 -19 16 -25 5 -15 128 -9 171 8 29 12 37 22 37 41 0 14
5 28 10 31 7 4 9 40 7 91 -2 46 -1 103 3 127 3 24 3 52 0 63 -7 18 -7 18 -14
-3z"/>
<path d="M4038 732 c-91 -362 -170 -710 -165 -725 3 -9 42 146 83 331 l16 72
396 2 397 3 -392 2 c-296 3 -393 6 -393 15 0 7 23 108 51 226 28 117 49 215
47 217 -2 2 -20 -62 -40 -143z"/>
<path d="M6441 799 c-1 -8 15 -73 34 -144 19 -70 38 -145 41 -167 4 -21 11
-41 15 -44 5 -3 9 -9 9 -15 0 -5 -339 -10 -872 -12 l-873 -2 878 -3 c607 -1
876 -5 872 -12 -4 -6 -2 -16 3 -23 6 -7 20 -59 31 -116 12 -56 28 -118 36
-136 9 -17 15 -36 14 -41 -1 -5 3 -22 9 -37 7 -16 12 -33 12 -38 0 -5 4 -9 9
-9 11 0 -4 57 -147 565 -22 77 -47 165 -55 195 -8 30 -16 48 -16 39z"/>
</g>
</svg>
